<svg xmlns="http://www.w3.org/2000/svg" width="500" height="372.608" viewBox="0 0 500 372.608">
  <g id="billHero" transform="translate(0 -54.953)">
    <g id="Background_Complete" data-name="Background Complete">
      <g id="Group_12019" data-name="Group 12019">
        <rect id="Rectangle_520" data-name="Rectangle 520" width="500" height="0.25" transform="translate(0 382.398)" fill="#ebebeb"/>
        <rect id="Rectangle_521" data-name="Rectangle 521" width="33.122" height="0.25" transform="translate(416.779 398.494)" fill="#ebebeb"/>
        <rect id="Rectangle_522" data-name="Rectangle 522" width="8.693" height="0.25" transform="translate(322.527 401.208)" fill="#ebebeb"/>
        <rect id="Rectangle_523" data-name="Rectangle 523" width="19.192" height="0.25" transform="translate(396.586 389.208)" fill="#ebebeb"/>
        <rect id="Rectangle_524" data-name="Rectangle 524" width="43.193" height="0.25" transform="translate(52.459 390.888)" fill="#ebebeb"/>
        <rect id="Rectangle_525" data-name="Rectangle 525" width="6.333" height="0.25" transform="translate(104.556 390.888)" fill="#ebebeb"/>
        <rect id="Rectangle_526" data-name="Rectangle 526" width="93.676" height="0.25" transform="translate(131.471 395.111)" fill="#ebebeb"/>
        <path id="Path_6682" data-name="Path 6682" d="M237.014,337.8H43.915a5.715,5.715,0,0,1-5.708-5.708V60.66a5.714,5.714,0,0,1,5.708-5.707h193.1a5.714,5.714,0,0,1,5.707,5.707V332.092A5.715,5.715,0,0,1,237.014,337.8ZM43.915,55.2a5.463,5.463,0,0,0-5.458,5.457V332.092a5.464,5.464,0,0,0,5.458,5.458h193.1a5.463,5.463,0,0,0,5.457-5.458V60.66a5.463,5.463,0,0,0-5.457-5.457Z" fill="#ebebeb"/>
        <path id="Path_6683" data-name="Path 6683" d="M453.31,337.8h-193.1a5.714,5.714,0,0,1-5.707-5.708V60.66a5.713,5.713,0,0,1,5.707-5.707h193.1a5.714,5.714,0,0,1,5.709,5.707V332.092A5.715,5.715,0,0,1,453.31,337.8ZM260.212,55.2a5.463,5.463,0,0,0-5.457,5.457V332.092a5.463,5.463,0,0,0,5.457,5.458h193.1a5.464,5.464,0,0,0,5.459-5.458V60.66A5.464,5.464,0,0,0,453.31,55.2Z" fill="#ebebeb"/>
      </g>
      <g id="Group_12037" data-name="Group 12037">
        <g id="Group_12023" data-name="Group 12023">
          <rect id="Rectangle_527" data-name="Rectangle 527" width="28.889" height="102.92" transform="translate(287.232 382.398) rotate(180)" fill="#e6e6e6"/>
          <path id="Path_6684" data-name="Path 6684" d="M263.83,382.4h-5.487v-9.541h11.24Z" fill="#f0f0f0"/>
          <rect id="Rectangle_528" data-name="Rectangle 528" width="28.889" height="102.92" transform="translate(452.062 382.398) rotate(180)" fill="#e6e6e6"/>
          <rect id="Rectangle_529" data-name="Rectangle 529" width="169.618" height="100.418" transform="translate(427.962 379.896) rotate(180)" fill="#f0f0f0"/>
          <g id="Group_12020" data-name="Group 12020">
            <rect id="Rectangle_530" data-name="Rectangle 530" width="88.882" height="50.28" transform="translate(372.041 374.324) rotate(-90)" fill="#e6e6e6"/>
            <path id="Path_6685" data-name="Path 6685" d="M392.208,290.538h9.947a14.763,14.763,0,0,0,11.423-5.735H380.784A14.767,14.767,0,0,0,392.208,290.538Z" fill="#f0f0f0"/>
          </g>
          <g id="Group_12021" data-name="Group 12021">
            <rect id="Rectangle_531" data-name="Rectangle 531" width="88.882" height="50.28" transform="translate(318.012 374.324) rotate(-90)" fill="#e6e6e6"/>
            <path id="Path_6686" data-name="Path 6686" d="M337.67,290.538h9.948a14.765,14.765,0,0,0,11.423-5.735H326.247A14.766,14.766,0,0,0,337.67,290.538Z" fill="#f0f0f0"/>
          </g>
          <g id="Group_12022" data-name="Group 12022">
            <rect id="Rectangle_532" data-name="Rectangle 532" width="88.882" height="50.28" transform="translate(263.983 374.324) rotate(-90)" fill="#e6e6e6"/>
            <path id="Path_6687" data-name="Path 6687" d="M283.641,290.538h9.948a14.765,14.765,0,0,0,11.423-5.735H272.218A14.766,14.766,0,0,0,283.641,290.538Z" fill="#f0f0f0"/>
          </g>
          <path id="Path_6688" data-name="Path 6688" d="M422.475,382.4h5.487v-9.541h-11.24Z" fill="#f0f0f0"/>
        </g>
        <g id="Group_12029" data-name="Group 12029">
          <g id="Group_12026" data-name="Group 12026">
            <g id="Group_12025" data-name="Group 12025">
              <g id="Group_12024" data-name="Group 12024">
                <rect id="Rectangle_533" data-name="Rectangle 533" width="193.825" height="165.034" transform="translate(270.478 252.721) rotate(180)" fill="#e6e6e6"/>
                <rect id="Rectangle_534" data-name="Rectangle 534" width="196.292" height="165.034" transform="translate(268.582 252.721) rotate(180)" fill="#f5f5f5"/>
                <rect id="Rectangle_535" data-name="Rectangle 535" width="149.194" height="180.632" transform="translate(260.753 95.607) rotate(90)" fill="#fafafa"/>
                <path id="Path_6689" data-name="Path 6689" d="M238.588,244.8,167.5,95.607H143.348L214.441,244.8Z" fill="#fff"/>
                <path id="Path_6690" data-name="Path 6690" d="M207.6,244.8,136.5,95.607H119.876L190.968,244.8Z" fill="#fff"/>
                <rect id="Rectangle_536" data-name="Rectangle 536" width="149.194" height="9.341" transform="translate(147.192 95.607) rotate(90)" fill="#e6e6e6"/>
                <rect id="Rectangle_537" data-name="Rectangle 537" width="149.194" height="9.341" transform="translate(209.28 95.607) rotate(90)" fill="#e6e6e6"/>
                <rect id="Rectangle_538" data-name="Rectangle 538" width="160.108" height="11.807" transform="translate(145.507 89.718) rotate(90)" fill="#f5f5f5"/>
                <rect id="Rectangle_539" data-name="Rectangle 539" width="160.108" height="11.807" transform="translate(207.596 89.718) rotate(90)" fill="#f5f5f5"/>
                <rect id="Rectangle_540" data-name="Rectangle 540" width="149.194" height="0.831" transform="translate(80.952 95.607) rotate(90)" fill="#e6e6e6"/>
              </g>
            </g>
          </g>
          <g id="Group_12028" data-name="Group 12028">
            <g id="Group_12027" data-name="Group 12027">
              <path id="Path_6691" data-name="Path 6691" d="M69,77.5H278.991a1.013,1.013,0,0,1,1.01,1.01h0a1.012,1.012,0,0,1-1.01,1.01H69a1.013,1.013,0,0,1-1.01-1.01h0A1.014,1.014,0,0,1,69,77.5Z" fill="#e6e6e6"/>
              <path id="Path_6692" data-name="Path 6692" d="M270.478,84.166h0a1.367,1.367,0,0,0,1.364-1.363V79.875a1.368,1.368,0,0,0-1.364-1.364h0a1.367,1.367,0,0,0-1.363,1.364V82.8A1.367,1.367,0,0,0,270.478,84.166Z" fill="#e6e6e6"/>
              <path id="Path_6693" data-name="Path 6693" d="M84.232,84.166h0A1.367,1.367,0,0,0,85.6,82.8V79.875a1.367,1.367,0,0,0-1.363-1.364h0a1.368,1.368,0,0,0-1.364,1.364V82.8A1.367,1.367,0,0,0,84.232,84.166Z" fill="#e6e6e6"/>
            </g>
            <rect id="Rectangle_541" data-name="Rectangle 541" width="196.149" height="81.91" transform="translate(265.474 160.421) rotate(180)" fill="#e0e0e0" opacity="0.6"/>
          </g>
        </g>
        <g id="Group_12036" data-name="Group 12036">
          <rect id="Rectangle_542" data-name="Rectangle 542" width="5.038" height="82.643" transform="translate(77.048 382.398) rotate(180)" fill="#e6e6e6"/>
          <g id="Group_12031" data-name="Group 12031">
            <g id="Group_12030" data-name="Group 12030">
              <rect id="Rectangle_543" data-name="Rectangle 543" width="27.29" height="16.083" transform="translate(162.951 283.672)" fill="#e6e6e6"/>
              <rect id="Rectangle_544" data-name="Rectangle 544" width="108.391" height="16.083" transform="translate(162.951 299.755) rotate(180)" fill="#f5f5f5"/>
            </g>
          </g>
          <g id="Group_12033" data-name="Group 12033">
            <g id="Group_12032" data-name="Group 12032">
              <rect id="Rectangle_545" data-name="Rectangle 545" width="27.29" height="16.083" transform="translate(162.951 309.755)" fill="#e6e6e6"/>
              <rect id="Rectangle_546" data-name="Rectangle 546" width="108.391" height="16.083" transform="translate(162.951 325.838) rotate(180)" fill="#f5f5f5"/>
            </g>
          </g>
          <g id="Group_12035" data-name="Group 12035">
            <g id="Group_12034" data-name="Group 12034">
              <rect id="Rectangle_547" data-name="Rectangle 547" width="27.29" height="16.083" transform="translate(162.951 335.838)" fill="#e6e6e6"/>
              <rect id="Rectangle_548" data-name="Rectangle 548" width="108.391" height="16.083" transform="translate(162.951 351.921) rotate(180)" fill="#f5f5f5"/>
            </g>
          </g>
          <rect id="Rectangle_549" data-name="Rectangle 549" width="5.038" height="82.643" transform="translate(185.439 382.398) rotate(180)" fill="#e6e6e6"/>
          <rect id="Rectangle_550" data-name="Rectangle 550" width="5.038" height="82.643" transform="translate(162.951 382.398) rotate(180)" fill="#f5f5f5"/>
          <rect id="Rectangle_551" data-name="Rectangle 551" width="5.038" height="82.643" transform="translate(59.599 382.398) rotate(180)" fill="#f5f5f5"/>
        </g>
      </g>
    </g>
    <g id="Shadow">
      <ellipse id="_Path_" data-name="&lt;Path&gt;" cx="193.889" cy="11.323" rx="193.889" ry="11.323" transform="translate(56.111 404.915)" fill="#f5f5f5"/>
    </g>
    <g id="Invoice">
      <g id="Group_12044" data-name="Group 12044">
        <g id="Group_12040" data-name="Group 12040">
          <g id="Group_12038" data-name="Group 12038">
            <path id="Path_6694" data-name="Path 6694" d="M396.008,370.838H233.6a11.4,11.4,0,0,1-11.491-12.44l19.9-260.765A13.7,13.7,0,0,1,255.4,85.193H417.8a11.4,11.4,0,0,1,11.491,12.44L409.4,358.4A13.7,13.7,0,0,1,396.008,370.838Z" fill="#ff725e"/>
            <path id="Path_6695" data-name="Path 6695" d="M396.008,370.838H233.6a11.4,11.4,0,0,1-11.491-12.44l19.9-260.765A13.7,13.7,0,0,1,255.4,85.193H417.8a11.4,11.4,0,0,1,11.491,12.44L409.4,358.4A13.7,13.7,0,0,1,396.008,370.838Z" fill="#fff" opacity="0.5"/>
          </g>
          <g id="Group_12039" data-name="Group 12039">
            <path id="Path_6696" data-name="Path 6696" d="M393.589,370.838H231.181a11.4,11.4,0,0,1-11.49-12.44l19.9-260.765a13.7,13.7,0,0,1,13.388-12.44H415.384a11.4,11.4,0,0,1,11.491,12.44L406.978,358.4A13.7,13.7,0,0,1,393.589,370.838Z" fill="#ff725e"/>
            <path id="Path_6697" data-name="Path 6697" d="M393.589,370.838H231.181a11.4,11.4,0,0,1-11.49-12.44l19.9-260.765a13.7,13.7,0,0,1,13.388-12.44H415.384a11.4,11.4,0,0,1,11.491,12.44L406.978,358.4A13.7,13.7,0,0,1,393.589,370.838Z" fill="#fff" opacity="0.7"/>
          </g>
          <path id="Path_6698" data-name="Path 6698" d="M231.5,366.691a7.584,7.584,0,0,1-7.661-8.293l19.633-257.31a9.117,9.117,0,0,1,8.926-8.293H414.8a7.584,7.584,0,0,1,7.661,8.293L402.832,358.4a9.116,9.116,0,0,1-8.926,8.293Z" fill="#ff725e"/>
          <path id="Path_6699" data-name="Path 6699" d="M392.764,136.079H276.54A4.5,4.5,0,0,1,272,131.163h0a5.415,5.415,0,0,1,5.291-4.916H393.514a4.5,4.5,0,0,1,4.541,4.916h0A5.414,5.414,0,0,1,392.764,136.079Z" opacity="0.2"/>
          <path id="Path_6700" data-name="Path 6700" d="M343.181,90.261H324.406a1.107,1.107,0,0,1-1.117-1.209h0a1.333,1.333,0,0,1,1.3-1.21h18.775a1.109,1.109,0,0,1,1.117,1.21h0A1.332,1.332,0,0,1,343.181,90.261Z" fill="#ff725e" opacity="0.3"/>
        </g>
        <g id="Group_12041" data-name="Group 12041">
          <path id="Path_6701" data-name="Path 6701" d="M276.031,131.163a12.427,12.427,0,0,0-12.566-13.6H381.458a12.426,12.426,0,0,1,12.565,13.6Z" fill="#f0f0f0"/>
          <path id="Path_6702" data-name="Path 6702" d="M263.465,117.559a14.936,14.936,0,0,0-14.641,13.6L236.733,289.631a14.935,14.935,0,0,1-14.641,13.6H340.084a14.934,14.934,0,0,0,14.641-13.6l12.092-158.468a14.936,14.936,0,0,1,14.641-13.6Z" fill="#fff"/>
          <path id="Path_6703" data-name="Path 6703" d="M327.519,289.631a12.425,12.425,0,0,0,12.565,13.6H222.092a12.426,12.426,0,0,1-12.566-13.6Z" fill="#f0f0f0"/>
          <path id="Path_6704" data-name="Path 6704" d="M258.454,286.5c.441-5.791-1.376-10.475-7.157-10.475H342.16c5.78,0,10.129,5.289,7.156,10.475Z" fill="#e0e0e0"/>
          <path id="Path_6705" data-name="Path 6705" d="M327.519,289.631a14.935,14.935,0,0,1,14.641-13.6H224.167a14.935,14.935,0,0,0-14.641,13.6Z" fill="#f0f0f0"/>
        </g>
        <path id="Path_6706" data-name="Path 6706" d="M383.311,328.92H247.856a3.271,3.271,0,0,1-3.3-3.571h0a3.932,3.932,0,0,1,3.843-3.57H383.856a3.27,3.27,0,0,1,3.3,3.57h0A3.933,3.933,0,0,1,383.311,328.92Z" fill="#fff"/>
        <path id="Path_6707" data-name="Path 6707" d="M314.908,346.082H246.547a3.271,3.271,0,0,1-3.3-3.571h0a3.932,3.932,0,0,1,3.843-3.57h68.36a3.272,3.272,0,0,1,3.3,3.57h0A3.933,3.933,0,0,1,314.908,346.082Z" fill="#fff"/>
        <path id="Path_6708" data-name="Path 6708" d="M362.236,346.082h-27.69a3.271,3.271,0,0,1-3.3-3.571h0a3.932,3.932,0,0,1,3.843-3.57h27.69a3.27,3.27,0,0,1,3.3,3.57h0A3.933,3.933,0,0,1,362.236,346.082Z" fill="#fff"/>
        <g id="Group_12042" data-name="Group 12042">
          <path id="Path_6709" data-name="Path 6709" d="M389.928,278.178l-7.067,1.107a6.816,6.816,0,0,0-.806-1.848,4.187,4.187,0,0,0-1.319-1.042l-.415,5.43q5.59,1.521,7.375,3.212a6.876,6.876,0,0,1,2.094,5.766,8.33,8.33,0,0,1-1.2,3.756,10.429,10.429,0,0,1-5.684,4.518,15.331,15.331,0,0,1-3.951.61l-.27,3.547h-2.74l.27-3.547a16.514,16.514,0,0,1-4.408-.892A8.185,8.185,0,0,1,368.981,297a7.9,7.9,0,0,1-1.735-2.468,10.878,10.878,0,0,1-.77-3.2l7.65-.882a6.7,6.7,0,0,0,.706,2.684,4.278,4.278,0,0,0,1.774,1.464l.506-6.632a32.835,32.835,0,0,1-5.238-1.823,6.365,6.365,0,0,1-2.561-2.47,6.8,6.8,0,0,1-.848-4.141,8.067,8.067,0,0,1,2.764-5.588,11.292,11.292,0,0,1,7.143-2.488l.142-1.858h2.74l-.142,1.858a10.8,10.8,0,0,1,6.277,1.989A7.267,7.267,0,0,1,389.928,278.178ZM378,276.3a3.885,3.885,0,0,0-1.746.981,2.3,2.3,0,0,0-.574,1.377,2.162,2.162,0,0,0,.365,1.442,3.2,3.2,0,0,0,1.586,1.026Zm1.329,18.487a4.75,4.75,0,0,0,2.427-1.177,2.889,2.889,0,0,0,.881-1.836,2.308,2.308,0,0,0-.5-1.628,5.172,5.172,0,0,0-2.344-1.382Z" fill="#fff"/>
        </g>
        <g id="Group_12043" data-name="Group 12043">
          <path id="Path_6710" data-name="Path 6710" d="M256.725,161.672h3.362l-.828,10.859H255.9Z" fill="#ff725e"/>
          <path id="Path_6711" data-name="Path 6711" d="M262.517,161.672h3.133l3.63,6.008.459-6.008H272.9l-.828,10.859H268.91l-3.612-5.962-.454,5.962h-3.156Z" fill="#ff725e"/>
          <path id="Path_6712" data-name="Path 6712" d="M274.064,161.672h3.507l1.848,7.815,3.009-7.815h3.406l-4.861,10.859h-3.636Z" fill="#ff725e"/>
          <path id="Path_6713" data-name="Path 6713" d="M285.574,167.109a6.041,6.041,0,0,1,1.8-4.141,5.979,5.979,0,0,1,4.238-1.481,5.293,5.293,0,0,1,4.067,1.456,5.144,5.144,0,0,1,1.155,4.077,7.05,7.05,0,0,1-.879,3.122,5.106,5.106,0,0,1-2,1.9,6.415,6.415,0,0,1-3.07.678,6.652,6.652,0,0,1-3-.585,4.1,4.1,0,0,1-1.81-1.852A5.875,5.875,0,0,1,285.574,167.109Zm3.355.015a3.469,3.469,0,0,0,.43,2.363,1.914,1.914,0,0,0,1.608.718,2.234,2.234,0,0,0,1.728-.7,4.257,4.257,0,0,0,.785-2.525,3.187,3.187,0,0,0-.447-2.241,1.959,1.959,0,0,0-1.624-.707,2.2,2.2,0,0,0-1.684.718A3.885,3.885,0,0,0,288.929,167.124Z" fill="#ff725e"/>
          <path id="Path_6714" data-name="Path 6714" d="M299.181,161.672h3.363l-.829,10.859h-3.363Z" fill="#ff725e"/>
          <path id="Path_6715" data-name="Path 6715" d="M311.69,168.087l2.873.888a5.919,5.919,0,0,1-1.091,2.067,4.523,4.523,0,0,1-1.677,1.252,6.16,6.16,0,0,1-2.435.422,6.713,6.713,0,0,1-2.853-.514,4.106,4.106,0,0,1-1.8-1.81,5.853,5.853,0,0,1-.562-3.316,6.071,6.071,0,0,1,1.749-4.142,5.85,5.85,0,0,1,4.166-1.447,5.2,5.2,0,0,1,3.162.83,4.4,4.4,0,0,1,1.55,2.548l-3.013.659a2.326,2.326,0,0,0-.27-.726,1.722,1.722,0,0,0-.644-.592,1.874,1.874,0,0,0-.9-.208,2.146,2.146,0,0,0-1.818.917,4.118,4.118,0,0,0-.623,2.138,3.89,3.89,0,0,0,.36,2.475,1.737,1.737,0,0,0,1.489.67,2.011,2.011,0,0,0,1.5-.541A3.655,3.655,0,0,0,311.69,168.087Z" fill="#ff725e"/>
          <path id="Path_6716" data-name="Path 6716" d="M316.743,161.672h8.991l-.176,2.319h-5.63l-.131,1.725h5.222l-.169,2.215h-5.222l-.164,2.141h5.793l-.188,2.459h-9.155Z" fill="#ff725e"/>
        </g>
        <path id="Path_6717" data-name="Path 6717" d="M352.362,186.554H254.826l.206-2.707h97.536Z" fill="#ff725e"/>
        <path id="Path_6718" data-name="Path 6718" d="M352.362,186.554H254.826l-.632,8.282H351.73Z" fill="#f0f0f0"/>
        <path id="Path_6719" data-name="Path 6719" d="M351.1,203.119H253.562l-.632,8.282h97.536Z" fill="#f0f0f0"/>
        <path id="Path_6720" data-name="Path 6720" d="M349.834,219.684H252.3l-.632,8.282H349.2Z" fill="#f0f0f0"/>
        <path id="Path_6721" data-name="Path 6721" d="M348.57,236.248H251.034l-.632,8.282h97.536Z" fill="#f0f0f0"/>
        <path id="Path_6722" data-name="Path 6722" d="M347.1,255.52H249.564l.206-2.707h97.536Z" fill="#ff725e"/>
        <path id="Path_6723" data-name="Path 6723" d="M335.942,136.079h20.272l-.923,12.094H335.019Z" fill="#f0f0f0"/>
      </g>
    </g>
    <g id="Character">
      <g id="Group_12047" data-name="Group 12047">
        <path id="Path_6724" data-name="Path 6724" d="M137.179,213.007l3.626,1.456a8.147,8.147,0,0,1,3.359,2.513l1.661,2.1a3.682,3.682,0,0,1-.122,4.709l-1.767,2.015a3.681,3.681,0,0,1-5.232.307l-1.69-1.522s-5.2-3.653-6.732-8.478l1-1A6.943,6.943,0,0,1,137.179,213.007Z" fill="#ffb573"/>
        <path id="Path_6725" data-name="Path 6725" d="M147.1,177.919l-1.18.778-1.312.9c-.873.621-1.749,1.256-2.6,1.914-1.7,1.325-3.368,2.7-4.912,4.152a40.7,40.7,0,0,0-7.735,9.424c-.245.419-.471.844-.679,1.271l-.164.321a3.214,3.214,0,0,0,.107-.407,1.515,1.515,0,0,0,.02-.507c-.1-.289-.1.462.121,1.2a31.1,31.1,0,0,0,2.394,5.539c2.058,3.939,4.644,7.988,7.077,11.982l.063.1a3.513,3.513,0,0,1-5.154,4.6,70.526,70.526,0,0,1-10.93-10.712,34.764,34.764,0,0,1-4.6-7.131,18.389,18.389,0,0,1-.935-2.46,12.12,12.12,0,0,1-.518-3.366,9.857,9.857,0,0,1,.625-3.569l.193-.513q.378-1.035.822-2.026a46.81,46.81,0,0,1,9.533-13.694,61.321,61.321,0,0,1,6.007-5.372c1.054-.821,2.125-1.62,3.24-2.371.559-.376,1.115-.756,1.7-1.114l.889-.54,1.014-.585a6.991,6.991,0,0,1,7.364,11.878Z" fill="#ffb573"/>
        <path id="Path_6726" data-name="Path 6726" d="M147.22,162.053c-5.845.034-12.241,2.53-20.444,12.7,0,6.07,12.814,14.139,12.814,14.139S160.592,161.976,147.22,162.053Z" fill="#263238"/>
        <path id="Path_6727" data-name="Path 6727" d="M103.833,402.441a.92.92,0,0,1-.309-.055c-1.213-.426-2.352-3.51-2.425-5.222a.281.281,0,0,1,.459-.23c.127.1,3.143,2.572,3.286,4.234a1.17,1.17,0,0,1-.276.9A.974.974,0,0,1,103.833,402.441Zm-2.1-4.61c.275,1.627,1.2,3.753,1.974,4.024.111.04.252.052.434-.156a.617.617,0,0,0,.138-.483C104.2,400.24,102.716,398.711,101.737,397.831Z" fill="#263238"/>
        <path id="Path_6728" data-name="Path 6728" d="M105.71,398.77a9.608,9.608,0,0,1-4.486-1.384.281.281,0,0,1,.084-.506c.16-.043,3.93-1.026,5.357-.16a1.16,1.16,0,0,1,.566.753.923.923,0,0,1-.359,1.03A2.084,2.084,0,0,1,105.71,398.77Zm-3.57-1.507c1.474.736,3.738,1.241,4.413.777.1-.068.19-.173.13-.442a.618.618,0,0,0-.309-.4C105.536,396.694,103.427,396.991,102.14,397.263Z" fill="#263238"/>
        <path id="Path_6729" data-name="Path 6729" d="M90.742,396.492A47.328,47.328,0,0,0,98.2,385.9s9.275,2.282,7.454,4.958c-3.3,4.853-4.915,14.817-.657,20.162,2.43,3.05-1.414,3.555-3.954,2.25-4.041-2.076-3.87-2.848-5.968-6.281-1.8-2.936-2.5-4.086-4.974-5.342C88.042,400.6,89.044,398.563,90.742,396.492Z" fill="#ff725e"/>
        <path id="Path_6730" data-name="Path 6730" d="M169.44,222.334s-13.461,65.6-23.3,93.617c-10.337,29.423-38.885,74.825-39.981,76.774-4.058-1.081-7.677-2.5-10.089-4.859,0,0,13.4-49.249,26.467-81.2,4.958-66.695,15.891-84.333,15.891-84.333Z" fill="#263238"/>
        <path id="Path_6731" data-name="Path 6731" d="M148.9,257.43c-.61,12.69-1.03,30.14-.43,51.38,4.11-13.24,8.581-31.19,12.34-47.3C158.306,258.16,154.4,256.55,148.9,257.43Z" opacity="0.2"/>
        <path id="Path_6732" data-name="Path 6732" d="M149.716,141.891c1.413,5.7,2.792,15.009.544,19.962,0,0,8.419.372,19.18,8.965,5.067-7.442-.8-8.9-.8-8.9-4.473-1.05-4.253-7.007-4.248-11.249Z" fill="#ffb573"/>
        <g id="Group_12045" data-name="Group 12045">
          <path id="Path_6733" data-name="Path 6733" d="M147.6,164.444c-4.2-.464-1.3-8.444.888-7.666,5.516,1.965,17.894-.222,21.723,1.889s2.86,6.444,2.86,6.444S152.123,164.944,147.6,164.444Z" fill="#ff725e"/>
          <path id="Path_6734" data-name="Path 6734" d="M147.6,164.444c-4.2-.464-1.3-8.444.888-7.666,5.516,1.965,17.894-.222,21.723,1.889s2.86,6.444,2.86,6.444S152.123,164.944,147.6,164.444Z" fill="#fff" opacity="0.7"/>
        </g>
        <path id="Path_6735" data-name="Path 6735" d="M172.1,131.821c.135.764.649,1.311,1.148,1.222s.794-.779.659-1.542-.649-1.311-1.148-1.222S171.966,131.058,172.1,131.821Z" fill="#263238"/>
        <path id="Path_6736" data-name="Path 6736" d="M172.547,130.36l1.74-.853S173.6,131.106,172.547,130.36Z" fill="#263238"/>
        <path id="Path_6737" data-name="Path 6737" d="M173.121,125.719a.455.455,0,0,0-.516-.659,4.516,4.516,0,0,0-3.141,2.723.455.455,0,0,0,.865.285,3.6,3.6,0,0,1,2.51-2.128A.455.455,0,0,0,173.121,125.719Z" fill="#263238"/>
        <path id="Path_6738" data-name="Path 6738" d="M173,133.676a20.716,20.716,0,0,0,3.263,4.635,3.337,3.337,0,0,1-2.695.8Z" fill="#ed893e"/>
        <path id="Path_6739" data-name="Path 6739" d="M146,131.429c2.225,9.277,2.973,13.25,8.47,17.24,8.268,6,18.95,1.265,19.486-8.483.483-8.774-3.238-22.47-12.9-24.607C151.538,113.474,143.775,122.153,146,131.429Z" fill="#ffb573"/>
        <path id="Path_6740" data-name="Path 6740" d="M163.979,133.137c5.462-7.22,9.025-13.054,6.33-19.444-2.252-5.341-8.479-3.778-9.349-1.112-16.565-1.414-22.511,4.586-19.092,14.513,2.177,6.325-6.282,3.046-4.223,11.079,1.58,6.16-3.991,8.507-1.164,12.049,4.081,5.111,12.5-1.555,22.109,2.278C166.453,155.636,178.269,150.889,163.979,133.137Z" fill="#263238"/>
        <path id="Path_6741" data-name="Path 6741" d="M163.091,134.6a6.126,6.126,0,0,0,4.148,2.856c2.175.317,2.922-2.119,2.033-4.38-.8-2.036-2.9-4.654-4.942-3.927C162.315,129.861,161.86,132.653,163.091,134.6Z" fill="#ffb573"/>
        <path id="Path_6742" data-name="Path 6742" d="M166.322,408.556a8.976,8.976,0,0,1-4.731-2.063.281.281,0,0,1,.157-.488c.163-.019,4.039-.44,5.323.623a1.159,1.159,0,0,1,.45.828.922.922,0,0,1-.5.966A1.593,1.593,0,0,1,166.322,408.556Zm-3.807-2.051c1.352.944,3.522,1.773,4.253,1.412.107-.053.213-.143.193-.418a.62.62,0,0,0-.248-.438C165.958,406.437,163.827,406.424,162.515,406.505Z" fill="#263238"/>
        <path id="Path_6743" data-name="Path 6743" d="M161.779,406.566a.282.282,0,0,1-.244-.421c.082-.144,2.024-3.522,3.64-3.934a1.16,1.16,0,0,1,.933.124.924.924,0,0,1,.484.978c-.221,1.266-3.078,2.9-4.755,3.247A.286.286,0,0,1,161.779,406.566Zm3.733-3.837a.79.79,0,0,0-.2.027c-.949.242-2.214,1.955-2.923,3.064,1.56-.537,3.5-1.8,3.647-2.6.021-.118.01-.258-.224-.4A.568.568,0,0,0,165.512,402.729Z" fill="#263238"/>
        <path id="Path_6744" data-name="Path 6744" d="M173.751,412.068c-8.1-.626-13.556-6.187-12.985-12.081.316-3.249-10.069-3.539-10.069-3.539,1.642,10.075-.419,11.512-1.1,14.114s-.512,5.479,1.636,5.533c2.574.065,3.771-.428,6.968-.3,3.738.146,7.781.292,14.424.3C175.284,416.1,177.353,412.348,173.751,412.068Z" fill="#ff725e"/>
        <path id="Path_6745" data-name="Path 6745" d="M183.44,222.334s-.705,49.682-4.628,82.333-17.4,96.69-17.4,96.69a22.485,22.485,0,0,1-10.769-.1s-4.26-50.028,2.9-98.369c-5.258-50.665-8.545-80.555-8.545-80.555Z" fill="#263238"/>
        <path id="Path_6746" data-name="Path 6746" d="M185.279,176.372c-.167,3.839,5.893,12.715-1.587,17.86,1.4,3.124,2.579,24.313-.252,28.1-4.129,3.035-26.479,2.445-45.015,0-.783-7.661,3.434-23.53-1.732-48.276a9.865,9.865,0,0,1,8.669-11.834c1.558-.157,3.208-.288,4.9-.37a124.283,124.283,0,0,1,17.728,0c1.914.175,3.893.417,5.782.682A13.394,13.394,0,0,1,185.279,176.372Z" fill="#ff725e"/>
        <g id="Group_12046" data-name="Group 12046" opacity="0.3">
          <path id="Path_6747" data-name="Path 6747" d="M137.165,172.722c-.14.074-.279.152-.42.224l0,0,0,0a.258.258,0,0,0,.245.454c.153-.083.3-.17.453-.255,1.984.733,4.137,2.389,5.366,2.558-1.982-1.752-3.409-3.006-4.974-2.779.472-.274.934-.562,1.392-.858,1.823.678,3.8,2.195,4.928,2.351-1.839-1.625-3.159-2.785-4.612-2.556q.515-.341,1.021-.7c.191-.134.379-.273.568-.411,1.643.714,3.388,2.225,4.42,2.43-1.651-1.64-2.822-2.8-4.224-2.572q.657-.487,1.293-1c1.51.66,3.11,2.045,4.058,2.233-1.518-1.509-2.6-2.573-3.885-2.372q.547-.441,1.082-.9c.087-.074.172-.149.258-.224,1.332.7,2.652,2.08,3.521,2.331-1.259-1.512-2.136-2.557-3.46-2.384q.515-.445,1.015-.9c1.226.645,2.439,1.913,3.238,2.144-1.156-1.388-1.963-2.35-3.176-2.2q.531-.486,1.05-.988c1.071.658,2.093,1.86,2.8,2.109-.963-1.314-1.638-2.231-2.727-2.182.188-.184.377-.367.563-.554.107-.108.212-.218.319-.327.986.606,1.928,1.714,2.582,1.943-.888-1.212-1.511-2.057-2.517-2.01.292-.3.58-.6.861-.915.9.484,1.752,1.415,2.357,1.592-.8-1.025-1.354-1.735-2.316-1.637.052-.057.106-.112.157-.171.2-.23.4-.461.6-.7a25.487,25.487,0,0,0,2.146,1.453c-.724-.931-1.232-1.58-2.094-1.513.233-.283.458-.575.664-.883a.082.082,0,0,0-.136-.093v0c-.2.278-.409.546-.632.807a1.861,1.861,0,0,0-.363-1.324l-.342.022a12.479,12.479,0,0,1,.546,1.483q-.269.306-.545.6c-.043.047-.089.092-.132.138.191-.721-.186-1.351-.77-2.158-.062.005-.122.012-.184.016.155.617.623,1.465.819,2.282-.262.277-.53.549-.8.816.252-.919-.381-1.734-1.278-2.882.043.688.845,1.886,1.164,2.994l-.284.28c-.181.174-.364.345-.548.516.253-.986-.429-1.864-1.393-3.1.047.741.906,2.03,1.257,3.227q-.477.441-.963.868c.209-1-.453-1.966-1.368-3.3.005.79.813,2.2,1.139,3.5q-.393.342-.791.675c.234-1.085-.487-2.139-1.483-3.589.006.857.882,2.384,1.236,3.795-.07.058-.139.117-.21.175q-.546.447-1.1.876c.293-1.105-.4-2.356-1.342-4.059-.074.923.75,2.723,1.016,4.31q-.627.476-1.27.928c.482-1.254-.295-2.664-1.385-4.627-.082,1.028.86,3.056,1.123,4.809-.125.086-.249.174-.375.259-.4.266-.795.523-1.2.775.555-1.27-.115-2.774-1.1-4.817-.046.073-.1.141-.141.214.076,1.2.77,3.126.926,4.8q-.671.408-1.357.786c.52-1.057.226-2.261-.417-3.764a9.871,9.871,0,0,0-.35,1.3A18.4,18.4,0,0,1,137.165,172.722Z" fill="#263238"/>
          <path id="Path_6748" data-name="Path 6748" d="M162.714,165.789c-1.51-.965-2.993-2.734-3.98-3.1,1.37,1.881,2.343,3.209,3.763,3.209-.483.251-.961.513-1.435.782-1.386-.891-2.747-2.512-3.653-2.848,1.26,1.73,2.156,2.952,3.46,2.958-.406.233-.81.469-1.21.713-.1.058-.193.12-.29.18-1.205-.9-2.289-2.474-3.107-2.86,1,1.693,1.7,2.864,3.038,2.9q-.578.357-1.145.729c-1.108-.83-2.1-2.275-2.857-2.63.921,1.555,1.565,2.632,2.787,2.675q-.6.4-1.194.809c-.952-.818-1.771-2.167-2.431-2.526.742,1.45,1.264,2.462,2.347,2.587-.216.151-.431.3-.644.457-.123.089-.245.182-.367.273-.878-.755-1.633-2-2.241-2.328.684,1.337,1.165,2.27,2.166,2.384q-.5.374-.995.766c-.817-.621-1.506-1.675-2.075-1.945.624,1.138,1.062,1.927,2.027,1.983-.06.049-.122.1-.181.143-.238.2-.474.393-.706.6-.742-.576-1.369-1.528-1.888-1.774.567,1.033.965,1.755,1.828,1.826a10.844,10.844,0,0,0-.8.766.082.082,0,0,0,.12.113h0c.237-.245.49-.475.751-.7-.243.678.109,1.367.595,2.31a19.685,19.685,0,0,0-.409-2.464c.209-.173.421-.343.634-.51.05-.039.1-.076.153-.115-.344.771.049,1.54.6,2.613a24.4,24.4,0,0,0-.448-2.73c.3-.231.61-.458.921-.679-.395.868.1,1.772.805,3.048.066-.686-.535-1.995-.675-3.14.109-.077.216-.156.325-.231.206-.143.414-.283.622-.424-.405.933.129,1.909.885,3.28.072-.739-.573-2.148-.729-3.385q.54-.36,1.088-.705c-.365.95.136,2.013.828,3.474.12-.781-.454-2.3-.57-3.634q.441-.276.888-.541c-.4,1.033.141,2.189.895,3.778.13-.847-.493-2.493-.619-3.942.078-.046.156-.094.235-.14q.609-.354,1.23-.69c-.464,1.044.018,2.39.682,4.221.219-.9-.309-2.808-.321-4.417q.694-.37,1.4-.715c-.674,1.161-.13,2.677.634,4.787.244-1-.364-3.153-.346-4.925.137-.065.273-.133.411-.2.432-.2.868-.39,1.306-.575-.783,1.219-.288,2.9.4,5.221.328-1.071-.194-3.439-.068-5.361q.727-.3,1.465-.562c-.942,1.33-.4,3.175.372,5.763.358-1.172-.22-3.772-.07-5.868.15-.051.3-.105.45-.155h.008a.258.258,0,0,0-.17-.487c-.164.057-.325.12-.487.18a31.491,31.491,0,0,1-3.323-2.432c-.267-.009-.534-.013-.8-.018,1.3,1.542,2.372,2.586,3.7,2.6-.509.2-1.011.408-1.51.628-1.693-.959-3.4-2.77-4.493-3.1,1.558,1.9,2.678,3.251,4.149,3.255-.375.17-.749.344-1.118.525C163.129,165.576,162.922,165.683,162.714,165.789Z" fill="#263238"/>
          <path id="Path_6749" data-name="Path 6749" d="M150.222,184.485c-1.1-1.2-1.877-2.033-2.954-1.864.167-.2.334-.406.5-.612.095-.12.187-.241.281-.361,1.048.492,2.108,1.488,2.782,1.643-1.017-1.106-1.73-1.876-2.724-1.718.256-.33.508-.665.753-1.005.953.381,1.9,1.212,2.52,1.32-.907-.93-1.539-1.573-2.484-1.369.045-.063.092-.124.136-.187.177-.251.352-.5.521-.761a25.357,25.357,0,0,0,2.294,1.2c-.822-.843-1.4-1.432-2.249-1.27.2-.307.391-.622.562-.951a.083.083,0,0,0-.034-.111.082.082,0,0,0-.112.034v0c-.163.3-.345.588-.538.872.053-.719-.47-1.288-1.191-2.067a19.738,19.738,0,0,0,1.053,2.265c-.155.222-.313.443-.474.661-.038.051-.078.1-.116.152.124-.835-.46-1.471-1.28-2.357a24.556,24.556,0,0,0,1.162,2.511q-.345.456-.706.9c.149-.941-.571-1.681-1.591-2.721.12.678,1.05,1.779,1.491,2.846-.084.1-.167.206-.251.309-.16.192-.324.383-.487.574.142-1.008-.634-1.8-1.73-2.923.129.731,1.127,1.915,1.609,3.066q-.425.49-.861.971c.1-1.014-.669-1.9-1.726-3.126.093.785,1.052,2.093,1.521,3.349q-.351.383-.711.758c.112-1.1-.722-2.071-1.873-3.4.1.852,1.142,2.271,1.651,3.634-.063.065-.125.132-.189.2q-.493.5-1,.994c.168-1.13-.656-2.3-1.786-3.884.03.926,1.049,2.623,1.49,4.169q-.568.543-1.158,1.064c.339-1.3-.59-2.614-1.892-4.443.033,1.031,1.195,2.941,1.652,4.653-.115.1-.228.2-.344.3-.362.308-.732.608-1.1.9.428-1.383-.5-2.866-1.788-4.922-.028,1.12,1.108,3.261,1.5,5.148q-.62.481-1.261.933a3.609,3.609,0,0,0-.378-2.817c.12,1.2.212,2.352.293,3.493l.139-.1c2.053.507,4.377,1.912,5.617,1.944-2.165-1.52-3.723-2.608-5.252-2.207.438-.325.866-.663,1.287-1.009,1.888.471,4.02,1.758,5.159,1.788-2.008-1.41-3.449-2.416-4.868-2.026.316-.265.629-.532.937-.806.175-.155.347-.314.519-.472,1.713.526,3.615,1.834,4.664,1.922-1.824-1.445-3.116-2.464-4.485-2.085.4-.371.789-.751,1.174-1.137,1.574.488,3.318,1.686,4.281,1.767-1.677-1.329-2.867-2.267-4.125-1.924q.495-.5.976-1.011c.078-.082.153-.167.231-.251,1.4.545,2.867,1.771,3.759,1.924-1.419-1.362-2.407-2.3-3.7-1.984q.461-.5.908-1.01c1.29.5,2.637,1.629,3.456,1.77-1.3-1.252-2.212-2.117-3.4-1.832q.474-.543.934-1.1C148.34,183.236,149.489,184.317,150.222,184.485Z" fill="#263238"/>
          <path id="Path_6750" data-name="Path 6750" d="M167.631,183.757c-.723.318-1.694,1.617-2.758,2.433q-.47-.224-.933-.458c1.088-.216,1.77-1.3,2.705-2.785-.784.346-1.838,1.755-2.992,2.64-.081-.041-.163-.081-.244-.123q-.627-.324-1.243-.666c1.13-.17,2.005-1.3,3.193-2.843-.877.3-2.2,1.769-3.552,2.643q-.687-.387-1.357-.8c1.342-.055,2.329-1.329,3.7-3.108-.976.333-2.463,2-3.967,2.94-.129-.081-.259-.159-.388-.242-.4-.256-.8-.522-1.186-.792,1.448.006,2.6-1.312,4.185-3.147-1.079.3-2.795,2.012-4.485,2.938q-.642-.453-1.261-.934c1.628.081,2.892-1.368,4.66-3.41-1.18.328-3.063,2.212-4.91,3.212-.124-.1-.251-.195-.373-.3l0,0,0,0a.258.258,0,0,0-.319.4c.136.107.275.209.413.314.115,2.112-.55,4.745-.218,5.941.822-2.515,1.407-4.323.577-5.668.439.324.887.634,1.34.936.1,1.943-.507,4.358-.2,5.456.762-2.332,1.3-4.005.516-5.247q.518.338,1.043.661c.2.122.4.239.6.358,0,1.792-.7,3.993-.475,5.022.849-2.167,1.446-3.7.683-4.9.472.274.95.535,1.431.791-.007,1.648-.642,3.666-.439,4.611.782-1.993,1.331-3.4.635-4.508.415.218.832.432,1.252.638l.307.148c-.111,1.5-.855,3.26-.742,4.156.889-1.755,1.5-2.974.816-4.121q.612.294,1.231.573c-.1,1.381-.787,3-.683,3.823.816-1.613,1.379-2.735.758-3.788q.659.294,1.324.571c-.178,1.244-.876,2.659-.823,3.409.823-1.4,1.4-2.389.92-3.369.243.1.486.2.731.3.142.056.286.108.428.163-.165,1.146-.808,2.45-.759,3.141.76-1.3,1.288-2.2.846-3.108q.587.225,1.181.427c-.085,1.023-.6,2.17-.525,2.8.624-1.139,1.055-1.931.583-2.776.073.025.145.052.219.076.292.1.585.189.88.276a25.606,25.606,0,0,0-.482,2.546c.567-1.034.961-1.758.558-2.523a10.984,10.984,0,0,0,1.074.26.083.083,0,0,0,.031-.163h0c-.333-.068-.664-.158-.992-.259.7-.159,1.1-.826,1.629-1.743-.507.225-1.133,1.108-1.858,1.669-.258-.083-.515-.171-.771-.261-.06-.021-.119-.045-.179-.066.835-.125,1.273-.87,1.88-1.913-.561.249-1.256,1.239-2.062,1.845q-.537-.2-1.067-.412c.944-.133,1.44-1.037,2.138-2.316-.614.312-1.4,1.523-2.286,2.256-.123-.05-.247-.1-.369-.15-.232-.1-.461-.2-.692-.3,1.005-.16,1.541-1.134,2.291-2.509-.662.337-1.5,1.637-2.463,2.434q-.594-.261-1.18-.539C166.144,186.119,166.772,185.125,167.631,183.757Z" fill="#263238"/>
          <path id="Path_6751" data-name="Path 6751" d="M161.857,197.091a25.75,25.75,0,0,0,2.365,1.057c-.874-.791-1.487-1.341-2.325-1.125.181-.32.351-.647.5-.986a.082.082,0,0,0-.041-.108.084.084,0,0,0-.11.04v0c-.143.308-.307.609-.481.905.007-.721-.551-1.256-1.319-1.988a19.53,19.53,0,0,0,1.194,2.194q-.212.348-.431.689c-.035.054-.072.106-.107.16.071-.841-.552-1.44-1.426-2.272a24.371,24.371,0,0,0,1.318,2.433q-.315.477-.647.943c.089-.949-.676-1.641-1.76-2.615.162.669,1.16,1.709,1.667,2.746-.077.107-.153.216-.23.324-.148.2-.3.4-.45.6.077-1.015-.747-1.762-1.911-2.808.175.721,1.245,1.84,1.8,2.958q-.393.518-.8,1.024c.033-1.018-.788-1.858-1.921-3.011.143.777,1.182,2.022,1.73,3.246q-.327.4-.661.8c.041-1.108-.852-2.022-2.085-3.276.155.844,1.283,2.194,1.877,3.522-.059.069-.116.139-.176.209q-.459.534-.936,1.055c.1-1.139-.8-2.252-2.028-3.764.089.923,1.213,2.551,1.751,4.067q-.534.579-1.089,1.136c.257-1.319-.754-2.572-2.169-4.316.1,1.027,1.378,2.86,1.943,4.54-.108.107-.215.215-.324.321-.343.331-.692.653-1.045.971.34-1.408-.677-2.829-2.1-4.8.042,1.119,1.311,3.185,1.822,5.043q-.588.519-1.2,1.011c.455-1.566-.663-3.131-2.24-5.322.045,1.224,1.444,3.491,1.989,5.52-.125.1-.248.2-.374.294l0,0,0,0a.258.258,0,0,0,.32.4c.136-.108.267-.22.4-.33,2.081.376,4.49,1.632,5.73,1.585-2.257-1.38-3.881-2.367-5.382-1.871.417-.352.822-.716,1.221-1.087,1.914.35,4.123,1.5,5.262,1.458-2.093-1.281-3.6-2.193-4.987-1.715.3-.284.6-.571.885-.863.165-.165.326-.335.487-.5,1.743.416,3.724,1.6,4.776,1.623-1.911-1.328-3.265-2.263-4.607-1.8.375-.4.74-.8,1.1-1.209,1.6.388,3.419,1.472,4.385,1.492-1.758-1.22-3-2.081-4.238-1.659.307-.353.612-.709.91-1.07.072-.088.142-.177.214-.265,1.433.455,2.974,1.586,3.873,1.682-1.5-1.27-2.548-2.147-3.822-1.746q.429-.528.843-1.065c1.319.421,2.734,1.459,3.561,1.548-1.38-1.167-2.342-1.973-3.511-1.614q.439-.571.863-1.155c1.169.461,2.384,1.467,3.126,1.589-1.177-1.126-2-1.912-3.066-1.674.154-.214.308-.427.459-.643.086-.125.171-.253.257-.378,1.077.425,2.2,1.351,2.881,1.464-1.085-1.039-1.846-1.763-2.828-1.542q.353-.519.688-1.05c.975.319,1.972,1.089,2.6,1.157-.963-.871-1.635-1.473-2.565-1.208.04-.066.084-.13.124-.2C161.546,197.621,161.7,197.358,161.857,197.091Z" fill="#263238"/>
          <path id="Path_6752" data-name="Path 6752" d="M167.925,208.251a10.212,10.212,0,0,1,.66-.784c-.158.7.275,1.343.874,2.219a19.639,19.639,0,0,0-.709-2.4c.186-.2.376-.392.566-.584.045-.045.093-.088.138-.133-.246.807.238,1.523.919,2.52a24.53,24.53,0,0,0-.78-2.655c.273-.267.549-.529.831-.787-.286.91.317,1.747,1.173,2.926-.019-.688-.777-1.914-1.055-3.034.1-.089.194-.18.293-.268.187-.168.377-.332.566-.5-.288.976.362,1.879,1.281,3.146-.02-.742-.833-2.061-1.14-3.269q.492-.425.994-.834c-.245.988.382,1.982,1.248,3.346.023-.79-.733-2.225-1.012-3.536q.4-.327.815-.646c-.273,1.075.409,2.155,1.352,3.64.025-.857-.795-2.414-1.1-3.837.072-.056.143-.112.216-.167.374-.285.754-.562,1.136-.836-.333,1.093.311,2.369,1.2,4.105.106-.921-.651-2.749-.861-4.344q.644-.453,1.3-.882c-.527,1.235.2,2.673,1.217,4.674.119-1.025-.748-3.085-.949-4.846.128-.082.256-.166.385-.246.4-.252.813-.494,1.225-.731-.628,1.3.069,2.908,1.043,5.132.194-1.1-.615-3.389-.726-5.313q.686-.386,1.385-.737c-.772,1.435-.007,3.2,1.077,5.673.211-1.207-.681-3.716-.79-5.814.143-.069.284-.142.428-.209l0,0,0,0a.258.258,0,0,0-.228-.462c-.156.077-.308.159-.462.238-1.957-.8-4.049-2.536-5.271-2.75,1.918,1.823,3.3,3.128,4.871,2.957-.482.257-.954.528-1.422.808-1.8-.744-3.717-2.331-4.84-2.528,1.779,1.691,3.057,2.9,4.517,2.722-.351.214-.7.433-1.045.658-.2.127-.389.259-.583.39-1.617-.772-3.305-2.346-4.33-2.588,1.591,1.7,2.72,2.9,4.129,2.723-.449.308-.891.627-1.328.952-1.486-.715-3.035-2.156-3.975-2.377,1.463,1.561,2.5,2.664,3.8,2.509q-.562.421-1.114.856c-.089.071-.176.144-.265.215-1.306-.745-2.576-2.174-3.435-2.456,1.2,1.556,2.042,2.633,3.371,2.508q-.528.426-1.047.864c-1.2-.688-2.368-2-3.157-2.259,1.1,1.43,1.876,2.42,3.094,2.313q-.549.468-1.085.949c-1.046-.695-2.024-1.933-2.724-2.208.914,1.348,1.557,2.288,2.647,2.279-.195.176-.39.353-.583.532-.111.1-.22.211-.331.317-.964-.641-1.865-1.783-2.51-2.036.844,1.243,1.436,2.111,2.443,2.1q-.455.434-.893.883c-.887-.516-1.7-1.477-2.3-1.676.76,1.053,1.291,1.782,2.256,1.719-.054.056-.11.109-.163.165-.212.223-.422.447-.627.676-.807-.479-1.547-1.348-2.092-1.529.69.957,1.174,1.623,2.038,1.588-.243.275-.478.558-.7.858a.083.083,0,0,0,.133.1Z" fill="#263238"/>
          <path id="Path_6753" data-name="Path 6753" d="M156.2,222.5q.6-.556,1.173-1.137c1.575.489,3.319,1.686,4.282,1.766-1.677-1.329-2.867-2.266-4.125-1.923q.493-.5.975-1.011c.078-.083.154-.168.231-.251,1.4.545,2.868,1.771,3.759,1.924-1.419-1.362-2.407-2.3-3.7-1.984q.461-.5.908-1.01c1.289.5,2.636,1.629,3.456,1.77-1.3-1.251-2.212-2.118-3.4-1.832q.476-.543.934-1.1c1.137.534,2.287,1.615,3.019,1.784-1.1-1.2-1.876-2.035-2.953-1.865.167-.2.334-.406.5-.612.094-.12.187-.242.281-.362,1.048.493,2.107,1.489,2.782,1.644-1.017-1.106-1.731-1.876-2.725-1.718.257-.33.509-.665.753-1,.954.38,1.9,1.211,2.52,1.319-.906-.93-1.538-1.573-2.484-1.369.045-.063.093-.124.137-.187.177-.251.352-.5.521-.761a25.531,25.531,0,0,0,2.294,1.205c-.823-.845-1.4-1.433-2.25-1.27a10.907,10.907,0,0,0,.562-.952.083.083,0,0,0-.034-.111.084.084,0,0,0-.112.033v0c-.162.3-.345.589-.537.873.053-.718-.471-1.288-1.191-2.067a19.571,19.571,0,0,0,1.053,2.265c-.155.222-.314.442-.474.661-.038.051-.078.1-.117.152.125-.835-.46-1.472-1.279-2.357a24.456,24.456,0,0,0,1.162,2.511q-.347.456-.706.9c.148-.941-.571-1.68-1.591-2.721.12.678,1.05,1.779,1.49,2.845-.084.1-.166.207-.251.309-.16.194-.323.384-.487.575.142-1.008-.634-1.805-1.729-2.923.129.731,1.127,1.915,1.608,3.066q-.423.49-.86.971c.1-1.014-.669-1.9-1.727-3.126.094.785,1.053,2.093,1.522,3.349q-.353.383-.711.758c.111-1.1-.723-2.071-1.873-3.4.1.851,1.141,2.27,1.651,3.634-.064.065-.126.132-.189.2-.329.336-.664.667-1,.994.168-1.131-.657-2.3-1.786-3.885.03.927,1.048,2.623,1.49,4.17q-.57.543-1.158,1.064c.339-1.3-.591-2.615-1.892-4.443.033,1.031,1.194,2.941,1.651,4.653-.114.1-.228.2-.344.3q-.543.462-1.1.9c.429-1.383-.5-2.866-1.787-4.922-.029,1.106,1.077,3.209,1.483,5.079l.769.053q.467-.389.921-.791c.175-.155.346-.314.518-.471a32.6,32.6,0,0,1,3.456,1.535l.759.033C158.646,222.979,157.453,222.15,156.2,222.5Z" fill="#263238"/>
          <path id="Path_6754" data-name="Path 6754" d="M150.669,219.419c-.025.968.748,2.64,1.28,4.315l.757.058C152.624,222.553,151.775,221.181,150.669,219.419Z" fill="#263238"/>
          <path id="Path_6755" data-name="Path 6755" d="M154.636,223.927q.758.05,1.509.094A2.711,2.711,0,0,0,154.636,223.927Z" fill="#263238"/>
          <path id="Path_6756" data-name="Path 6756" d="M183.739,221.832c.029-.058.056-.122.084-.184-.123-.041-.246-.081-.368-.124-.06-.021-.119-.045-.179-.067a1.5,1.5,0,0,0,.766-.358c.09-.261.177-.539.255-.847a11.315,11.315,0,0,1-1.2,1.138q-.537-.2-1.067-.413c.944-.132,1.44-1.037,2.138-2.316-.614.313-1.395,1.524-2.286,2.257-.123-.05-.247-.1-.369-.15-.232-.1-.462-.2-.692-.3,1.005-.159,1.541-1.134,2.291-2.508-.662.337-1.5,1.638-2.463,2.434-.4-.174-.789-.355-1.18-.539,1-.2,1.626-1.2,2.485-2.565-.723.319-1.694,1.618-2.758,2.434q-.469-.225-.933-.458c1.088-.216,1.77-1.3,2.705-2.786-.784.347-1.838,1.756-2.992,2.641-.082-.042-.163-.081-.244-.123-.418-.216-.832-.44-1.244-.667,1.131-.169,2.006-1.3,3.194-2.843-.877.3-2.2,1.77-3.552,2.644q-.687-.387-1.357-.8c1.342-.056,2.328-1.329,3.7-3.108-.976.333-2.464,2-3.967,2.939-.129-.08-.26-.159-.388-.241-.4-.256-.795-.522-1.186-.792,1.448.006,2.6-1.312,4.185-3.148-1.079.3-2.8,2.012-4.485,2.939q-.642-.453-1.261-.934c1.628.081,2.892-1.369,4.66-3.41-1.18.328-3.063,2.212-4.91,3.211-.125-.1-.251-.194-.373-.295l0,0,0,0a.258.258,0,1,0-.319.4c.136.107.275.209.413.314.115,2.112-.55,4.745-.218,5.941.821-2.515,1.406-4.323.577-5.669.439.325.887.635,1.34.937.1,1.943-.507,4.358-.2,5.456.762-2.333,1.3-4.005.515-5.248.345.225.693.447,1.044.662.2.122.4.239.6.357,0,1.792-.7,3.994-.475,5.022.849-2.166,1.446-3.7.683-4.9q.708.409,1.43.791c-.006,1.648-.642,3.666-.438,4.61.782-1.992,1.331-3.4.635-4.507.415.218.831.432,1.252.638.1.05.205.1.307.147-.112,1.5-.856,3.26-.742,4.157.888-1.755,1.5-2.975.816-4.122q.612.3,1.231.574c-.1,1.338-.741,2.893-.684,3.739l.047-.008c.79-1.562,1.321-2.664.712-3.7q.658.3,1.324.572c-.145,1.01-.626,2.127-.776,2.915.089-.017.181-.033.268-.051.642-1.124,1.017-1.976.605-2.824.243.1.486.2.731.3.142.056.285.109.428.164a15.378,15.378,0,0,1-.564,2.082c.158-.043.316-.087.462-.133a2.093,2.093,0,0,0,.189-1.916q.587.224,1.181.427a6.587,6.587,0,0,1-.189,1.018,3.9,3.9,0,0,0,.44-.262,1.5,1.5,0,0,0-.193-.737c.073.025.145.053.218.077C183.5,221.76,183.622,221.795,183.739,221.832Z" fill="#263238"/>
          <path id="Path_6757" data-name="Path 6757" d="M145.26,200.96h.007a.258.258,0,1,0-.138-.5c-.167.047-.332.1-.5.148-1.772-1.154-3.5-3.247-4.665-3.685,1.544,2.148,2.658,3.688,4.234,3.813-.521.163-1.036.342-1.548.529-1.2-.788-2.383-2.037-3.348-2.8,0,.233,0,.452,0,.682,1,1.3,1.867,2.171,3,2.247-.386.146-.769.3-1.15.453-.216.088-.43.182-.645.275a11.885,11.885,0,0,1-1.212-1.057c0,.28-.008.557-.013.833a2.235,2.235,0,0,0,1,.319c-.345.151-.684.314-1.025.474,0,.142-.007.282-.011.422.445-.2.893-.4,1.344-.581-.748,1.116-.3,2.664.324,4.819.308-.984-.16-3.17-.028-4.937.141-.057.282-.116.424-.17.443-.172.89-.334,1.339-.49-.86,1.165-.474,2.87.068,5.237.4-1.049.028-3.445.278-5.356q.745-.251,1.5-.465c-1.026,1.266-.6,3.142,0,5.774.433-1.146.024-3.778.309-5.859C144.954,201.044,145.106,201,145.26,200.96Z" fill="#263238"/>
          <path id="Path_6758" data-name="Path 6758" d="M139.078,207.23c.034.118.066.232.1.355a9,9,0,0,0,.005-2.612C139.153,205.744,139.117,206.5,139.078,207.23Z" fill="#263238"/>
          <path id="Path_6759" data-name="Path 6759" d="M142.621,221.859c-.122-.2-.249-.4-.375-.592.813-1.6,2.429-3.246,2.7-4.263-1.738,1.547-2.965,2.644-2.827,4.058-.3-.457-.6-.907-.917-1.352.752-1.467,2.232-2.979,2.477-3.913-1.6,1.423-2.727,2.433-2.6,3.731q-.408-.573-.828-1.134c-.068-.091-.139-.181-.208-.271.779-1.287,2.239-2.52,2.544-3.371-1.587,1.163-2.684,1.974-2.594,3.306q-.411-.54-.837-1.069c.718-1.183,2.059-2.316,2.339-3.1-1.458,1.068-2.467,1.814-2.391,3.035-.2-.251-.411-.5-.617-.743-.009.138-.019.28-.027.416.118.149.239.3.356.446a1.838,1.838,0,0,0-.38-.062c-.008.15-.014.293-.022.439.2-.052.393-.1.586-.136q.316.412.625.831a2.254,2.254,0,0,0-1.241.03c-.008.207-.019.421-.026.622a11.972,11.972,0,0,1,1.457-.393c.054.073.109.146.162.22.275.382.542.768.807,1.157a3.592,3.592,0,0,0-2.441.323c0,.184-.005.38,0,.557a23.263,23.263,0,0,1,2.672-.539q.437.654.848,1.324c-.954-.436-2.054-.107-3.453.516.01.13.011.275.024.4.076.01.153.019.228.03a29.168,29.168,0,0,1,3.366-.673c.079.13.159.259.236.39.151.256.292.516.436.774l.56.064C143.046,222.561,142.837,222.208,142.621,221.859Z" fill="#263238"/>
          <path id="Path_6760" data-name="Path 6760" d="M138.713,212.781c-.012.162-.022.308-.034.468a3.518,3.518,0,0,0,.7-.9C139.141,212.5,138.921,212.641,138.713,212.781Z" fill="#263238"/>
          <path id="Path_6761" data-name="Path 6761" d="M144.592,223.063l.889.094a13.632,13.632,0,0,0,1.808-3.26A15.193,15.193,0,0,0,144.592,223.063Z" fill="#263238"/>
          <path id="Path_6762" data-name="Path 6762" d="M143.583,222.955c.827-1.689,2.292-3.424,2.505-4.48-1.734,1.733-2.972,2.98-2.835,4.443Z" fill="#263238"/>
          <path id="Path_6763" data-name="Path 6763" d="M138.584,214.572c-.019.266-.036.532-.054.79a15.113,15.113,0,0,0,1.922-2.213A8.71,8.71,0,0,0,138.584,214.572Z" fill="#263238"/>
        </g>
        <path id="Path_6764" data-name="Path 6764" d="M208.043,190.123l4.421-4.689,6.122,8.622s-5.169,3.668-10.121,3.521l-.567-1.266A6.937,6.937,0,0,1,208.043,190.123Z" fill="#ffb573"/>
        <path id="Path_6765" data-name="Path 6765" d="M219.549,185.886l1.729,3.258a3.064,3.064,0,0,1-1.247,4.129l-1.445.783-6.122-8.622,3.5-1.047A3.063,3.063,0,0,1,219.549,185.886Z" fill="#ffb573"/>
        <path id="Path_6766" data-name="Path 6766" d="M184.683,173.29l.372,1.914.421,2.021c.3,1.347.6,2.7.935,4.037.652,2.681,1.424,5.307,2.264,7.847a52.848,52.848,0,0,0,2.965,7.108,19.1,19.1,0,0,0,3.665,5.1l-2.126-1.047c-.623-.086-.735.1-.412.094a4.618,4.618,0,0,0,1.516-.434,25.45,25.45,0,0,0,4.259-2.493c1.492-1.023,2.986-2.185,4.484-3.387s3.014-2.5,4.466-3.69l.153-.126a3.52,3.52,0,0,1,5.362,4.33,50.545,50.545,0,0,1-3.352,5.548,51.156,51.156,0,0,1-4.074,5.163,30.854,30.854,0,0,1-5.39,4.782A17.529,17.529,0,0,1,196.2,212.1a11.7,11.7,0,0,1-2.817.617,10.726,10.726,0,0,1-3.563-.256,5.464,5.464,0,0,1-1.885-.871l-.242-.177a28.951,28.951,0,0,1-7.609-8.492c-.914-1.49-1.729-2.991-2.466-4.5-.715-1.51-1.363-3.024-1.96-4.539a81.676,81.676,0,0,1-2.932-9.145c-.391-1.535-.765-3.07-1.072-4.621-.157-.775-.309-1.553-.444-2.338-.135-.808-.25-1.53-.379-2.467a7,7,0,0,1,13.8-2.309Z" fill="#ffb573"/>
        <path id="Path_6767" data-name="Path 6767" d="M175.094,162.791c5.814.6,10.468,4.457,13.718,16.75-2.5,3.459-18.25,11.05-18.25,11.05S161.793,161.415,175.094,162.791Z" fill="#263238"/>
      </g>
    </g>
  </g>
</svg>
