<svg xmlns="http://www.w3.org/2000/svg" xmlns:xlink="http://www.w3.org/1999/xlink" width="750" height="500" viewBox="0 0 750 500">
  <defs>
    <clipPath id="clip-path">
      <rect id="Rectangle_358" data-name="Rectangle 358" width="750" height="500" transform="translate(-28.664 15.175)" fill="none"/>
    </clipPath>
    <linearGradient id="linear-gradient" x1="0.124" y1="0.83" x2="0.543" y2="-0.004" gradientUnits="objectBoundingBox">
      <stop offset="0" stop-color="snow"/>
      <stop offset="1" stop-color="#ff725e"/>
    </linearGradient>
    <filter id="Path_5241" x="-58.752" y="-47.674" width="732.986" height="449.189" filterUnits="userSpaceOnUse">
      <feOffset dx="6" dy="6" input="SourceAlpha"/>
      <feGaussianBlur stdDeviation="7.5" result="blur"/>
      <feFlood flood-color="#5e5c5b" flood-opacity="0.071"/>
      <feComposite operator="in" in2="blur"/>
      <feComposite in="SourceGraphic"/>
    </filter>
    <linearGradient id="linear-gradient-2" x1="0" y1="0.5" x2="1" y2="0.5" xlink:href="#linear-gradient"/>
    <filter id="Path_5242" x="358.15" y="118.55" width="454.732" height="455.754" filterUnits="userSpaceOnUse">
      <feOffset dx="6" dy="6" input="SourceAlpha"/>
      <feGaussianBlur stdDeviation="7.5" result="blur-2"/>
      <feFlood flood-color="#5e5c5b" flood-opacity="0.071"/>
      <feComposite operator="in" in2="blur-2"/>
      <feComposite in="SourceGraphic"/>
    </filter>
    <linearGradient id="linear-gradient-3" x1="0.656" y1="0.028" x2="0.343" y2="0.975" xlink:href="#linear-gradient"/>
    <filter id="Ellipse_1052" x="223.093" y="63.062" width="331.38" height="331.38" filterUnits="userSpaceOnUse">
      <feOffset dx="6" dy="6" input="SourceAlpha"/>
      <feGaussianBlur stdDeviation="7.5" result="blur-3"/>
      <feFlood flood-color="#5e5c5b" flood-opacity="0.051"/>
      <feComposite operator="in" in2="blur-3"/>
      <feComposite in="SourceGraphic"/>
    </filter>
    <filter id="Ellipse_1053" x="73.484" y="-0.673" width="158.392" height="158.392" filterUnits="userSpaceOnUse">
      <feOffset dx="6" dy="6" input="SourceAlpha"/>
      <feGaussianBlur stdDeviation="7.5" result="blur-4"/>
      <feFlood flood-color="#5e5c5b" flood-opacity="0.051"/>
      <feComposite operator="in" in2="blur-4"/>
      <feComposite in="SourceGraphic"/>
    </filter>
    <filter id="Ellipse_1054" x="611.156" y="105.001" width="107.535" height="107.535" filterUnits="userSpaceOnUse">
      <feOffset dx="6" dy="6" input="SourceAlpha"/>
      <feGaussianBlur stdDeviation="7.5" result="blur-5"/>
      <feFlood flood-color="#5e5c5b" flood-opacity="0.051"/>
      <feComposite operator="in" in2="blur-5"/>
      <feComposite in="SourceGraphic"/>
    </filter>
    <filter id="Ellipse_1056" x="46.08" y="365.416" width="298.339" height="298.339" filterUnits="userSpaceOnUse">
      <feOffset dx="6" dy="6" input="SourceAlpha"/>
      <feGaussianBlur stdDeviation="7.5" result="blur-6"/>
      <feFlood flood-color="#5e5c5b" flood-opacity="0.071"/>
      <feComposite operator="in" in2="blur-6"/>
      <feComposite in="SourceGraphic"/>
    </filter>
  </defs>
  <g id="desined-background" transform="translate(28.664 -15.175)" opacity="0.47">
    <g id="Group_6129" data-name="Group 6129" clip-path="url(#clip-path)">
      <g id="Group_6128" data-name="Group 6128">
        <g transform="matrix(1, 0, 0, 1, -28.66, 15.17)" filter="url(#Path_5241)">
          <path id="Path_5241-2" data-name="Path 5241" d="M-10.6,352.725c25.654,17.777,56.382,26.989,87.228,31.756,53.645,8.289,110.5,3.364,158.651-21.694s86.3-71.946,93.422-125.758c3.3-24.915.085-50.185.284-75.317s4.393-51.578,20.117-71.184c21.827-27.217,60.378-34.615,95.222-32.874S513.714,68.319,548.517,65.9c16.434-1.144,33.137-5.032,46.574-14.561s23.078-25.472,21.879-41.9c-.531-7.279-3.7-15.011-10.255-18.212-3.5-1.708-7.518-1.92-11.41-2.1A4992.559,4992.559,0,0,0,81.252-7.692C38.832-5.241-4.25-2.3-45.722-11.55c-3.215-.717-6.675-1.489-9.713-.214-4.426,1.858-6.1,7.16-7.126,11.849-9.577,43.569-8.734,88.664-7.846,133.264.75,37.663,1.221,75.344,2.258,113,.691,25.091,7.953,46.656,21.1,68.229a121.841,121.841,0,0,0,15.664,20.356C-27.764,338.749-16.071,352.725-10.6,352.725Z" transform="translate(28.66 -15.17)" fill="url(#linear-gradient)"/>
        </g>
        <circle id="Ellipse_1051" data-name="Ellipse 1051" cx="167.882" cy="167.882" r="167.882" transform="translate(410.491 103.684) rotate(-45)" fill="none" stroke="snow" stroke-miterlimit="10" stroke-width="3"/>
        <g transform="matrix(1, 0, 0, 1, -28.66, 15.17)" filter="url(#Path_5242)">
          <path id="Path_5242-2" data-name="Path 5242" d="M350.62,484.069c-5.245-11.967-6.6-26.155-1.118-38.016,6.047-13.094,19.566-21.546,33.61-24.833s28.716-2.106,43.045-.461c25.537,2.929,51.17,7.28,76.793,5.243s51.889-11.385,68.243-31.215c13.116-15.9,18.562-36.912,19.919-57.482s-1-41.182-1.644-61.787c-1.24-39.624,6.226-83.785,37.473-108.182,25.1-19.6,61.064-21.479,90.819-10.128,4.826,1.841,9.815,4.238,12.509,8.644,1.967,3.218,2.448,7.1,2.885,10.844q3.081,26.443,6.164,52.888c11.553,99.121,23.112,199.3,11.721,298.44-.327,2.849-.72,5.823-2.353,8.18-2.077,3-5.729,4.408-9.185,5.568-34.218,11.483-70.642,14.474-106.685,16.4q-66.271,3.531-132.681,2.614c-25.862-.358-73.281,4.019-93.608-14.961-8.985-8.389-17.17-16.833-26.624-25.008C368.208,510.7,356.884,498.362,350.62,484.069Z" transform="translate(28.66 -15.17)" fill="url(#linear-gradient-2)"/>
        </g>
        <g transform="matrix(1, 0, 0, 1, -28.66, 15.17)" filter="url(#Ellipse_1052)">
          <circle id="Ellipse_1052-2" data-name="Ellipse 1052" cx="101.251" cy="101.251" r="101.251" transform="translate(239.59 222.75) rotate(-45)" fill="url(#linear-gradient-3)"/>
        </g>
        <g transform="matrix(1, 0, 0, 1, -28.66, 15.17)" filter="url(#Ellipse_1053)">
          <circle id="Ellipse_1053-2" data-name="Ellipse 1053" cx="43.393" cy="43.393" r="43.393" transform="translate(89.98 49.04) rotate(-22.5)" fill="url(#linear-gradient-3)"/>
        </g>
        <g transform="matrix(1, 0, 0, 1, -28.66, 15.17)" filter="url(#Ellipse_1054)">
          <circle id="Ellipse_1054-2" data-name="Ellipse 1054" cx="31.267" cy="31.267" r="31.267" transform="translate(627.66 121.5)" fill="url(#linear-gradient-3)"/>
        </g>
        <circle id="Ellipse_1055" data-name="Ellipse 1055" cx="208.516" cy="208.516" r="208.516" transform="translate(-271.574 409.405) rotate(-45)" fill="none" stroke="snow" stroke-miterlimit="10" stroke-width="3"/>
        <g transform="matrix(1, 0, 0, 1, -28.66, 15.17)" filter="url(#Ellipse_1056)">
          <circle id="Ellipse_1056-2" data-name="Ellipse 1056" cx="89.569" cy="89.569" r="89.569" transform="translate(62.58 508.59) rotate(-45)" fill="url(#linear-gradient-3)"/>
        </g>
        <circle id="Ellipse_1057" data-name="Ellipse 1057" cx="32.011" cy="32.011" r="32.011" transform="translate(230.124 160.593) rotate(-45)" fill="none" stroke="snow" stroke-miterlimit="10" stroke-width="3"/>
        <circle id="Ellipse_1058" data-name="Ellipse 1058" cx="19.918" cy="19.918" r="19.918" transform="translate(641.452 459.881) rotate(-30.958)" fill="none" stroke="snow" stroke-miterlimit="10" stroke-width="3"/>
      </g>
    </g>
  </g>
</svg>
