<svg xmlns="http://www.w3.org/2000/svg" xmlns:xlink="http://www.w3.org/1999/xlink" width="559.258" height="508.186" viewBox="0 0 559.258 508.186">
  <defs>
    <clipPath id="clip-path">
      <rect x="19" y="17" width="559.258" height="508.186" fill="none"/>
    </clipPath>
  </defs>
  <g id="doted-background" transform="translate(-19 -17)" opacity="0.39" clip-path="url(#clip-path)" style="isolation: isolate">
    <g id="doted-background-2" data-name="doted-background">
      <path id="Path_4985" data-name="Path 4985" d="M5.943,2.7a2.848,2.848,0,0,1-2.972,2.7A2.848,2.848,0,0,1,0,2.7,2.848,2.848,0,0,1,2.972,0,2.848,2.848,0,0,1,5.943,2.7Z" fill="#ff725e"/>
      <path id="Path_4986" data-name="Path 4986" d="M25.943,2.7a2.848,2.848,0,0,1-2.972,2.7A2.848,2.848,0,0,1,20,2.7,2.848,2.848,0,0,1,22.972,0,2.848,2.848,0,0,1,25.943,2.7Z" transform="translate(19.621)" fill="#ff725e"/>
      <path id="Path_4987" data-name="Path 4987" d="M5.943,22.7a2.848,2.848,0,0,1-2.972,2.7A2.848,2.848,0,0,1,0,22.7,2.848,2.848,0,0,1,2.972,20,2.848,2.848,0,0,1,5.943,22.7Z" transform="translate(0 16.052)" fill="#ff725e"/>
      <path id="Path_4988" data-name="Path 4988" d="M25.943,22.7a2.848,2.848,0,0,1-2.972,2.7A2.848,2.848,0,0,1,20,22.7,2.848,2.848,0,0,1,22.972,20,2.848,2.848,0,0,1,25.943,22.7Z" transform="translate(19.621 16.052)" fill="#ff725e"/>
      <path id="Path_4989" data-name="Path 4989" d="M45.943,2.7A2.985,2.985,0,0,1,40,2.7a2.985,2.985,0,0,1,5.943,0Z" transform="translate(39.242)" fill="#ff725e"/>
      <path id="Path_4990" data-name="Path 4990" d="M65.943,2.7A2.985,2.985,0,0,1,60,2.7a2.985,2.985,0,0,1,5.943,0Z" transform="translate(58.863)" fill="#ff725e"/>
      <path id="Path_4991" data-name="Path 4991" d="M45.943,22.7A2.985,2.985,0,0,1,40,22.7a2.985,2.985,0,0,1,5.943,0Z" transform="translate(39.242 16.052)" fill="#ff725e"/>
      <path id="Path_4992" data-name="Path 4992" d="M65.943,22.7A2.985,2.985,0,0,1,60,22.7a2.985,2.985,0,0,1,5.943,0Z" transform="translate(58.863 16.052)" fill="#ff725e"/>
      <path id="Path_4993" data-name="Path 4993" d="M85.943,2.7A2.985,2.985,0,0,1,80,2.7a2.985,2.985,0,0,1,5.943,0Z" transform="translate(78.484)" fill="#ff725e"/>
      <path id="Path_4994" data-name="Path 4994" d="M105.943,2.7A2.985,2.985,0,0,1,100,2.7a2.985,2.985,0,0,1,5.943,0Z" transform="translate(98.105)" fill="#ff725e"/>
      <path id="Path_4995" data-name="Path 4995" d="M85.943,22.7A2.985,2.985,0,0,1,80,22.7a2.985,2.985,0,0,1,5.943,0Z" transform="translate(78.484 16.052)" fill="#ff725e"/>
      <path id="Path_4996" data-name="Path 4996" d="M105.943,22.7a2.985,2.985,0,0,1-5.943,0,2.985,2.985,0,0,1,5.943,0Z" transform="translate(98.105 16.052)" fill="#ff725e"/>
      <path id="Path_4997" data-name="Path 4997" d="M125.943,2.7A2.985,2.985,0,0,1,120,2.7a2.985,2.985,0,0,1,5.943,0Z" transform="translate(117.726)" fill="#ff725e"/>
      <path id="Path_4998" data-name="Path 4998" d="M145.943,2.7A2.985,2.985,0,0,1,140,2.7a2.985,2.985,0,0,1,5.943,0Z" transform="translate(137.347)" fill="#ff725e"/>
      <path id="Path_4999" data-name="Path 4999" d="M125.943,22.7a2.985,2.985,0,0,1-5.943,0,2.985,2.985,0,0,1,5.943,0Z" transform="translate(117.726 16.052)" fill="#ff725e"/>
      <path id="Path_5000" data-name="Path 5000" d="M145.943,22.7a2.985,2.985,0,0,1-5.943,0,2.985,2.985,0,0,1,5.943,0Z" transform="translate(137.347 16.052)" fill="#ff725e"/>
      <path id="Path_5001" data-name="Path 5001" d="M165.943,2.7A2.985,2.985,0,0,1,160,2.7a2.985,2.985,0,0,1,5.943,0Z" transform="translate(156.968)" fill="#ff725e"/>
      <path id="Path_5002" data-name="Path 5002" d="M185.943,2.7A2.985,2.985,0,0,1,180,2.7a2.985,2.985,0,0,1,5.943,0Z" transform="translate(176.589)" fill="#ff725e"/>
      <path id="Path_5003" data-name="Path 5003" d="M165.943,22.7a2.985,2.985,0,0,1-5.943,0,2.985,2.985,0,0,1,5.943,0Z" transform="translate(156.968 16.052)" fill="#ff725e"/>
      <path id="Path_5004" data-name="Path 5004" d="M185.943,22.7a2.985,2.985,0,0,1-5.943,0,2.985,2.985,0,0,1,5.943,0Z" transform="translate(176.589 16.052)" fill="#ff725e"/>
      <path id="Path_5005" data-name="Path 5005" d="M205.943,2.7A2.985,2.985,0,0,1,200,2.7a2.985,2.985,0,0,1,5.943,0Z" transform="translate(196.21)" fill="#ff725e"/>
      <path id="Path_5006" data-name="Path 5006" d="M225.943,2.7A2.985,2.985,0,0,1,220,2.7a2.985,2.985,0,0,1,5.943,0Z" transform="translate(215.831)" fill="#ff725e"/>
      <path id="Path_5007" data-name="Path 5007" d="M205.943,22.7a2.985,2.985,0,0,1-5.943,0,2.985,2.985,0,0,1,5.943,0Z" transform="translate(196.21 16.052)" fill="#ff725e"/>
      <path id="Path_5008" data-name="Path 5008" d="M225.943,22.7a2.985,2.985,0,0,1-5.943,0,2.985,2.985,0,0,1,5.943,0Z" transform="translate(215.831 16.052)" fill="#ff725e"/>
      <path id="Path_5009" data-name="Path 5009" d="M245.943,2.7A2.985,2.985,0,0,1,240,2.7a2.985,2.985,0,0,1,5.943,0Z" transform="translate(235.452)" fill="#ff725e"/>
      <path id="Path_5010" data-name="Path 5010" d="M265.943,2.7A2.985,2.985,0,0,1,260,2.7a2.985,2.985,0,0,1,5.943,0Z" transform="translate(255.072)" fill="#ff725e"/>
      <path id="Path_5011" data-name="Path 5011" d="M245.943,22.7a2.985,2.985,0,0,1-5.943,0,2.985,2.985,0,0,1,5.943,0Z" transform="translate(235.452 16.052)" fill="#ff725e"/>
      <path id="Path_5012" data-name="Path 5012" d="M265.943,22.7a2.985,2.985,0,0,1-5.943,0,2.985,2.985,0,0,1,5.943,0Z" transform="translate(255.072 16.052)" fill="#ff725e"/>
      <path id="Path_5013" data-name="Path 5013" d="M285.943,2.7A2.985,2.985,0,0,1,280,2.7a2.985,2.985,0,0,1,5.943,0Z" transform="translate(274.693)" fill="#ff725e"/>
      <path id="Path_5014" data-name="Path 5014" d="M305.943,2.7A2.985,2.985,0,0,1,300,2.7a2.985,2.985,0,0,1,5.943,0Z" transform="translate(294.314)" fill="#ff725e"/>
      <path id="Path_5015" data-name="Path 5015" d="M285.943,22.7a2.985,2.985,0,0,1-5.943,0,2.985,2.985,0,0,1,5.943,0Z" transform="translate(274.693 16.052)" fill="#ff725e"/>
      <path id="Path_5016" data-name="Path 5016" d="M305.943,22.7a2.985,2.985,0,0,1-5.943,0,2.985,2.985,0,0,1,5.943,0Z" transform="translate(294.314 16.052)" fill="#ff725e"/>
      <path id="Path_5017" data-name="Path 5017" d="M5.943,42.7a2.848,2.848,0,0,1-2.972,2.7,2.716,2.716,0,1,1,0-5.408A2.848,2.848,0,0,1,5.943,42.7Z" transform="translate(0 32.104)" fill="#ff725e"/>
      <path id="Path_5018" data-name="Path 5018" d="M25.943,42.7a2.848,2.848,0,0,1-2.972,2.7,2.716,2.716,0,1,1,0-5.408A2.848,2.848,0,0,1,25.943,42.7Z" transform="translate(19.621 32.104)" fill="#ff725e"/>
      <path id="Path_5019" data-name="Path 5019" d="M5.943,62.7a2.848,2.848,0,0,1-2.972,2.7,2.716,2.716,0,1,1,0-5.408A2.848,2.848,0,0,1,5.943,62.7Z" transform="translate(0 48.156)" fill="#ff725e"/>
      <path id="Path_5020" data-name="Path 5020" d="M25.943,62.7a2.848,2.848,0,0,1-2.972,2.7,2.716,2.716,0,1,1,0-5.408A2.848,2.848,0,0,1,25.943,62.7Z" transform="translate(19.621 48.156)" fill="#ff725e"/>
      <path id="Path_5021" data-name="Path 5021" d="M45.943,42.7A2.985,2.985,0,1,1,42.972,40,2.848,2.848,0,0,1,45.943,42.7Z" transform="translate(39.242 32.104)" fill="#ff725e"/>
      <path id="Path_5022" data-name="Path 5022" d="M65.943,42.7A2.985,2.985,0,1,1,62.972,40,2.848,2.848,0,0,1,65.943,42.7Z" transform="translate(58.863 32.104)" fill="#ff725e"/>
      <path id="Path_5023" data-name="Path 5023" d="M45.943,62.7A2.985,2.985,0,1,1,42.972,60,2.848,2.848,0,0,1,45.943,62.7Z" transform="translate(39.242 48.156)" fill="#ff725e"/>
      <path id="Path_5024" data-name="Path 5024" d="M65.943,62.7A2.985,2.985,0,1,1,62.972,60,2.848,2.848,0,0,1,65.943,62.7Z" transform="translate(58.863 48.156)" fill="#ff725e"/>
      <path id="Path_5025" data-name="Path 5025" d="M85.943,42.7A2.985,2.985,0,1,1,82.972,40,2.848,2.848,0,0,1,85.943,42.7Z" transform="translate(78.484 32.104)" fill="#ff725e"/>
      <path id="Path_5026" data-name="Path 5026" d="M105.943,42.7a2.985,2.985,0,1,1-2.972-2.7A2.848,2.848,0,0,1,105.943,42.7Z" transform="translate(98.105 32.104)" fill="#ff725e"/>
      <path id="Path_5027" data-name="Path 5027" d="M85.943,62.7A2.985,2.985,0,1,1,82.972,60,2.848,2.848,0,0,1,85.943,62.7Z" transform="translate(78.484 48.156)" fill="#ff725e"/>
      <path id="Path_5028" data-name="Path 5028" d="M105.943,62.7a2.985,2.985,0,1,1-2.972-2.7A2.848,2.848,0,0,1,105.943,62.7Z" transform="translate(98.105 48.156)" fill="#ff725e"/>
      <path id="Path_5029" data-name="Path 5029" d="M125.943,42.7a2.985,2.985,0,1,1-2.972-2.7A2.848,2.848,0,0,1,125.943,42.7Z" transform="translate(117.726 32.104)" fill="#ff725e"/>
      <path id="Path_5030" data-name="Path 5030" d="M145.943,42.7a2.985,2.985,0,1,1-2.972-2.7A2.848,2.848,0,0,1,145.943,42.7Z" transform="translate(137.347 32.104)" fill="#ff725e"/>
      <path id="Path_5031" data-name="Path 5031" d="M125.943,62.7a2.985,2.985,0,1,1-2.972-2.7A2.848,2.848,0,0,1,125.943,62.7Z" transform="translate(117.726 48.156)" fill="#ff725e"/>
      <path id="Path_5032" data-name="Path 5032" d="M145.943,62.7a2.985,2.985,0,1,1-2.972-2.7A2.848,2.848,0,0,1,145.943,62.7Z" transform="translate(137.347 48.156)" fill="#ff725e"/>
      <path id="Path_5033" data-name="Path 5033" d="M165.943,42.7a2.985,2.985,0,1,1-2.972-2.7A2.848,2.848,0,0,1,165.943,42.7Z" transform="translate(156.968 32.104)" fill="#ff725e"/>
      <path id="Path_5034" data-name="Path 5034" d="M185.943,42.7a2.985,2.985,0,1,1-2.972-2.7A2.848,2.848,0,0,1,185.943,42.7Z" transform="translate(176.589 32.104)" fill="#ff725e"/>
      <path id="Path_5035" data-name="Path 5035" d="M165.943,62.7a2.985,2.985,0,1,1-2.972-2.7A2.848,2.848,0,0,1,165.943,62.7Z" transform="translate(156.968 48.156)" fill="#ff725e"/>
      <path id="Path_5036" data-name="Path 5036" d="M185.943,62.7a2.985,2.985,0,1,1-2.972-2.7A2.848,2.848,0,0,1,185.943,62.7Z" transform="translate(176.589 48.156)" fill="#ff725e"/>
      <path id="Path_5037" data-name="Path 5037" d="M205.943,42.7a2.985,2.985,0,1,1-2.972-2.7A2.848,2.848,0,0,1,205.943,42.7Z" transform="translate(196.21 32.104)" fill="#ff725e"/>
      <path id="Path_5038" data-name="Path 5038" d="M225.943,42.7a2.985,2.985,0,1,1-2.972-2.7A2.848,2.848,0,0,1,225.943,42.7Z" transform="translate(215.831 32.104)" fill="#ff725e"/>
      <path id="Path_5039" data-name="Path 5039" d="M205.943,62.7a2.985,2.985,0,1,1-2.972-2.7A2.848,2.848,0,0,1,205.943,62.7Z" transform="translate(196.21 48.156)" fill="#ff725e"/>
      <path id="Path_5040" data-name="Path 5040" d="M225.943,62.7a2.985,2.985,0,1,1-2.972-2.7A2.848,2.848,0,0,1,225.943,62.7Z" transform="translate(215.831 48.156)" fill="#ff725e"/>
      <path id="Path_5041" data-name="Path 5041" d="M245.943,42.7a2.985,2.985,0,1,1-2.972-2.7A2.848,2.848,0,0,1,245.943,42.7Z" transform="translate(235.452 32.104)" fill="#ff725e"/>
      <path id="Path_5042" data-name="Path 5042" d="M265.943,42.7a2.985,2.985,0,1,1-2.972-2.7A2.848,2.848,0,0,1,265.943,42.7Z" transform="translate(255.072 32.104)" fill="#ff725e"/>
      <path id="Path_5043" data-name="Path 5043" d="M245.943,62.7a2.985,2.985,0,1,1-2.972-2.7A2.848,2.848,0,0,1,245.943,62.7Z" transform="translate(235.452 48.156)" fill="#ff725e"/>
      <path id="Path_5044" data-name="Path 5044" d="M265.943,62.7a2.985,2.985,0,1,1-2.972-2.7A2.848,2.848,0,0,1,265.943,62.7Z" transform="translate(255.072 48.156)" fill="#ff725e"/>
      <path id="Path_5045" data-name="Path 5045" d="M285.943,42.7a2.985,2.985,0,1,1-2.972-2.7A2.848,2.848,0,0,1,285.943,42.7Z" transform="translate(274.693 32.104)" fill="#ff725e"/>
      <path id="Path_5046" data-name="Path 5046" d="M305.943,42.7a2.985,2.985,0,1,1-2.972-2.7A2.848,2.848,0,0,1,305.943,42.7Z" transform="translate(294.314 32.104)" fill="#ff725e"/>
      <path id="Path_5047" data-name="Path 5047" d="M285.943,62.7a2.985,2.985,0,1,1-2.972-2.7A2.848,2.848,0,0,1,285.943,62.7Z" transform="translate(274.693 48.156)" fill="#ff725e"/>
      <path id="Path_5048" data-name="Path 5048" d="M305.943,62.7a2.985,2.985,0,1,1-2.972-2.7A2.848,2.848,0,0,1,305.943,62.7Z" transform="translate(294.314 48.156)" fill="#ff725e"/>
      <path id="Path_5049" data-name="Path 5049" d="M5.943,82.7a2.848,2.848,0,0,1-2.972,2.7,2.716,2.716,0,1,1,0-5.408A2.848,2.848,0,0,1,5.943,82.7Z" transform="translate(0 64.208)" fill="#ff725e"/>
      <path id="Path_5050" data-name="Path 5050" d="M25.943,82.7a2.848,2.848,0,0,1-2.972,2.7,2.716,2.716,0,1,1,0-5.408A2.848,2.848,0,0,1,25.943,82.7Z" transform="translate(19.621 64.208)" fill="#ff725e"/>
      <path id="Path_5051" data-name="Path 5051" d="M5.943,102.7a2.848,2.848,0,0,1-2.972,2.7,2.716,2.716,0,1,1,0-5.408A2.848,2.848,0,0,1,5.943,102.7Z" transform="translate(0 80.26)" fill="#ff725e"/>
      <path id="Path_5052" data-name="Path 5052" d="M25.943,102.7a2.848,2.848,0,0,1-2.972,2.7,2.716,2.716,0,1,1,0-5.408A2.848,2.848,0,0,1,25.943,102.7Z" transform="translate(19.621 80.26)" fill="#ff725e"/>
      <path id="Path_5053" data-name="Path 5053" d="M45.943,82.7A2.985,2.985,0,1,1,42.972,80,2.848,2.848,0,0,1,45.943,82.7Z" transform="translate(39.242 64.208)" fill="#ff725e"/>
      <path id="Path_5054" data-name="Path 5054" d="M65.943,82.7A2.985,2.985,0,1,1,62.972,80,2.848,2.848,0,0,1,65.943,82.7Z" transform="translate(58.863 64.208)" fill="#ff725e"/>
      <path id="Path_5055" data-name="Path 5055" d="M45.943,102.7a2.985,2.985,0,1,1-2.972-2.7A2.848,2.848,0,0,1,45.943,102.7Z" transform="translate(39.242 80.26)" fill="#ff725e"/>
      <path id="Path_5056" data-name="Path 5056" d="M65.943,102.7a2.985,2.985,0,1,1-2.972-2.7A2.848,2.848,0,0,1,65.943,102.7Z" transform="translate(58.863 80.26)" fill="#ff725e"/>
      <path id="Path_5057" data-name="Path 5057" d="M85.943,82.7A2.985,2.985,0,1,1,82.972,80,2.848,2.848,0,0,1,85.943,82.7Z" transform="translate(78.484 64.208)" fill="#ff725e"/>
      <path id="Path_5058" data-name="Path 5058" d="M105.943,82.7a2.985,2.985,0,1,1-2.972-2.7A2.848,2.848,0,0,1,105.943,82.7Z" transform="translate(98.105 64.208)" fill="#ff725e"/>
      <path id="Path_5059" data-name="Path 5059" d="M85.943,102.7a2.985,2.985,0,1,1-2.972-2.7A2.848,2.848,0,0,1,85.943,102.7Z" transform="translate(78.484 80.26)" fill="#ff725e"/>
      <path id="Path_5060" data-name="Path 5060" d="M105.943,102.7a2.985,2.985,0,1,1-2.972-2.7A2.848,2.848,0,0,1,105.943,102.7Z" transform="translate(98.105 80.26)" fill="#ff725e"/>
      <path id="Path_5061" data-name="Path 5061" d="M125.943,82.7a2.985,2.985,0,1,1-2.972-2.7A2.848,2.848,0,0,1,125.943,82.7Z" transform="translate(117.726 64.208)" fill="#ff725e"/>
      <path id="Path_5062" data-name="Path 5062" d="M145.943,82.7a2.985,2.985,0,1,1-2.972-2.7A2.848,2.848,0,0,1,145.943,82.7Z" transform="translate(137.347 64.208)" fill="#ff725e"/>
      <path id="Path_5063" data-name="Path 5063" d="M125.943,102.7a2.985,2.985,0,1,1-2.972-2.7A2.848,2.848,0,0,1,125.943,102.7Z" transform="translate(117.726 80.26)" fill="#ff725e"/>
      <path id="Path_5064" data-name="Path 5064" d="M145.943,102.7a2.985,2.985,0,1,1-2.972-2.7A2.848,2.848,0,0,1,145.943,102.7Z" transform="translate(137.347 80.26)" fill="#ff725e"/>
      <path id="Path_5065" data-name="Path 5065" d="M165.943,82.7a2.985,2.985,0,1,1-2.972-2.7A2.848,2.848,0,0,1,165.943,82.7Z" transform="translate(156.968 64.208)" fill="#ff725e"/>
      <path id="Path_5066" data-name="Path 5066" d="M185.943,82.7a2.985,2.985,0,1,1-2.972-2.7A2.848,2.848,0,0,1,185.943,82.7Z" transform="translate(176.589 64.208)" fill="#ff725e"/>
      <path id="Path_5067" data-name="Path 5067" d="M165.943,102.7a2.985,2.985,0,1,1-2.972-2.7A2.848,2.848,0,0,1,165.943,102.7Z" transform="translate(156.968 80.26)" fill="#ff725e"/>
      <path id="Path_5068" data-name="Path 5068" d="M185.943,102.7a2.985,2.985,0,1,1-2.972-2.7A2.848,2.848,0,0,1,185.943,102.7Z" transform="translate(176.589 80.26)" fill="#ff725e"/>
      <path id="Path_5069" data-name="Path 5069" d="M205.943,82.7a2.985,2.985,0,1,1-2.972-2.7A2.848,2.848,0,0,1,205.943,82.7Z" transform="translate(196.21 64.208)" fill="#ff725e"/>
      <path id="Path_5070" data-name="Path 5070" d="M225.943,82.7a2.985,2.985,0,1,1-2.972-2.7A2.848,2.848,0,0,1,225.943,82.7Z" transform="translate(215.831 64.208)" fill="#ff725e"/>
      <path id="Path_5071" data-name="Path 5071" d="M205.943,102.7a2.985,2.985,0,1,1-2.972-2.7A2.848,2.848,0,0,1,205.943,102.7Z" transform="translate(196.21 80.26)" fill="#ff725e"/>
      <path id="Path_5072" data-name="Path 5072" d="M225.943,102.7a2.985,2.985,0,1,1-2.972-2.7A2.848,2.848,0,0,1,225.943,102.7Z" transform="translate(215.831 80.26)" fill="#ff725e"/>
      <path id="Path_5073" data-name="Path 5073" d="M245.943,82.7a2.985,2.985,0,1,1-2.972-2.7A2.848,2.848,0,0,1,245.943,82.7Z" transform="translate(235.452 64.208)" fill="#ff725e"/>
      <path id="Path_5074" data-name="Path 5074" d="M265.943,82.7a2.985,2.985,0,1,1-2.972-2.7A2.848,2.848,0,0,1,265.943,82.7Z" transform="translate(255.072 64.208)" fill="#ff725e"/>
      <path id="Path_5075" data-name="Path 5075" d="M245.943,102.7a2.985,2.985,0,1,1-2.972-2.7A2.848,2.848,0,0,1,245.943,102.7Z" transform="translate(235.452 80.26)" fill="#ff725e"/>
      <path id="Path_5076" data-name="Path 5076" d="M265.943,102.7a2.985,2.985,0,1,1-2.972-2.7A2.848,2.848,0,0,1,265.943,102.7Z" transform="translate(255.072 80.26)" fill="#ff725e"/>
      <path id="Path_5077" data-name="Path 5077" d="M285.943,82.7a2.985,2.985,0,1,1-2.972-2.7A2.848,2.848,0,0,1,285.943,82.7Z" transform="translate(274.693 64.208)" fill="#ff725e"/>
      <path id="Path_5078" data-name="Path 5078" d="M305.943,82.7a2.985,2.985,0,1,1-2.972-2.7A2.848,2.848,0,0,1,305.943,82.7Z" transform="translate(294.314 64.208)" fill="#ff725e"/>
      <path id="Path_5079" data-name="Path 5079" d="M285.943,102.7a2.985,2.985,0,1,1-2.972-2.7A2.848,2.848,0,0,1,285.943,102.7Z" transform="translate(274.693 80.26)" fill="#ff725e"/>
      <path id="Path_5080" data-name="Path 5080" d="M305.943,102.7a2.985,2.985,0,1,1-2.972-2.7A2.848,2.848,0,0,1,305.943,102.7Z" transform="translate(294.314 80.26)" fill="#ff725e"/>
      <path id="Path_5081" data-name="Path 5081" d="M5.943,122.7a2.848,2.848,0,0,1-2.972,2.7,2.716,2.716,0,1,1,0-5.408A2.848,2.848,0,0,1,5.943,122.7Z" transform="translate(0 96.311)" fill="#ff725e"/>
      <path id="Path_5082" data-name="Path 5082" d="M25.943,122.7a2.848,2.848,0,0,1-2.972,2.7,2.716,2.716,0,1,1,0-5.408A2.848,2.848,0,0,1,25.943,122.7Z" transform="translate(19.621 96.311)" fill="#ff725e"/>
      <path id="Path_5083" data-name="Path 5083" d="M5.943,142.7a2.848,2.848,0,0,1-2.972,2.7,2.716,2.716,0,1,1,0-5.408A2.848,2.848,0,0,1,5.943,142.7Z" transform="translate(0 112.363)" fill="#ff725e"/>
      <path id="Path_5084" data-name="Path 5084" d="M25.943,142.7a2.848,2.848,0,0,1-2.972,2.7,2.716,2.716,0,1,1,0-5.408A2.848,2.848,0,0,1,25.943,142.7Z" transform="translate(19.621 112.363)" fill="#ff725e"/>
      <path id="Path_5085" data-name="Path 5085" d="M45.943,122.7a2.985,2.985,0,1,1-2.972-2.7A2.848,2.848,0,0,1,45.943,122.7Z" transform="translate(39.242 96.311)" fill="#ff725e"/>
      <path id="Path_5086" data-name="Path 5086" d="M65.943,122.7a2.985,2.985,0,1,1-2.972-2.7A2.848,2.848,0,0,1,65.943,122.7Z" transform="translate(58.863 96.311)" fill="#ff725e"/>
      <path id="Path_5087" data-name="Path 5087" d="M45.943,142.7a2.985,2.985,0,1,1-2.972-2.7A2.848,2.848,0,0,1,45.943,142.7Z" transform="translate(39.242 112.363)" fill="#ff725e"/>
      <path id="Path_5088" data-name="Path 5088" d="M65.943,142.7a2.985,2.985,0,1,1-2.972-2.7A2.848,2.848,0,0,1,65.943,142.7Z" transform="translate(58.863 112.363)" fill="#ff725e"/>
      <path id="Path_5089" data-name="Path 5089" d="M85.943,122.7a2.985,2.985,0,1,1-2.972-2.7A2.848,2.848,0,0,1,85.943,122.7Z" transform="translate(78.484 96.311)" fill="#ff725e"/>
      <path id="Path_5090" data-name="Path 5090" d="M105.943,122.7a2.985,2.985,0,1,1-2.972-2.7A2.848,2.848,0,0,1,105.943,122.7Z" transform="translate(98.105 96.311)" fill="#ff725e"/>
      <path id="Path_5091" data-name="Path 5091" d="M85.943,142.7a2.985,2.985,0,1,1-2.972-2.7A2.848,2.848,0,0,1,85.943,142.7Z" transform="translate(78.484 112.363)" fill="#ff725e"/>
      <path id="Path_5092" data-name="Path 5092" d="M105.943,142.7a2.985,2.985,0,1,1-2.972-2.7A2.848,2.848,0,0,1,105.943,142.7Z" transform="translate(98.105 112.363)" fill="#ff725e"/>
      <path id="Path_5093" data-name="Path 5093" d="M125.943,122.7a2.985,2.985,0,1,1-2.972-2.7A2.848,2.848,0,0,1,125.943,122.7Z" transform="translate(117.726 96.311)" fill="#ff725e"/>
      <path id="Path_5094" data-name="Path 5094" d="M145.943,122.7a2.985,2.985,0,1,1-2.972-2.7A2.848,2.848,0,0,1,145.943,122.7Z" transform="translate(137.347 96.311)" fill="#ff725e"/>
      <path id="Path_5095" data-name="Path 5095" d="M125.943,142.7a2.985,2.985,0,1,1-2.972-2.7A2.848,2.848,0,0,1,125.943,142.7Z" transform="translate(117.726 112.363)" fill="#ff725e"/>
      <path id="Path_5096" data-name="Path 5096" d="M145.943,142.7a2.985,2.985,0,1,1-2.972-2.7A2.848,2.848,0,0,1,145.943,142.7Z" transform="translate(137.347 112.363)" fill="#ff725e"/>
      <path id="Path_5097" data-name="Path 5097" d="M165.943,122.7a2.985,2.985,0,1,1-2.972-2.7A2.848,2.848,0,0,1,165.943,122.7Z" transform="translate(156.968 96.311)" fill="#ff725e"/>
      <path id="Path_5098" data-name="Path 5098" d="M185.943,122.7a2.985,2.985,0,1,1-2.972-2.7A2.848,2.848,0,0,1,185.943,122.7Z" transform="translate(176.589 96.311)" fill="#ff725e"/>
      <path id="Path_5099" data-name="Path 5099" d="M165.943,142.7a2.985,2.985,0,1,1-2.972-2.7A2.848,2.848,0,0,1,165.943,142.7Z" transform="translate(156.968 112.363)" fill="#ff725e"/>
      <path id="Path_5100" data-name="Path 5100" d="M185.943,142.7a2.985,2.985,0,1,1-2.972-2.7A2.848,2.848,0,0,1,185.943,142.7Z" transform="translate(176.589 112.363)" fill="#ff725e"/>
      <path id="Path_5101" data-name="Path 5101" d="M205.943,122.7a2.985,2.985,0,1,1-2.972-2.7A2.848,2.848,0,0,1,205.943,122.7Z" transform="translate(196.21 96.311)" fill="#ff725e"/>
      <path id="Path_5102" data-name="Path 5102" d="M225.943,122.7a2.985,2.985,0,1,1-2.972-2.7A2.848,2.848,0,0,1,225.943,122.7Z" transform="translate(215.831 96.311)" fill="#ff725e"/>
      <path id="Path_5103" data-name="Path 5103" d="M205.943,142.7a2.985,2.985,0,1,1-2.972-2.7A2.848,2.848,0,0,1,205.943,142.7Z" transform="translate(196.21 112.363)" fill="#ff725e"/>
      <path id="Path_5104" data-name="Path 5104" d="M225.943,142.7a2.985,2.985,0,1,1-2.972-2.7A2.848,2.848,0,0,1,225.943,142.7Z" transform="translate(215.831 112.363)" fill="#ff725e"/>
      <path id="Path_5105" data-name="Path 5105" d="M245.943,122.7a2.985,2.985,0,1,1-2.972-2.7A2.848,2.848,0,0,1,245.943,122.7Z" transform="translate(235.452 96.311)" fill="#ff725e"/>
      <path id="Path_5106" data-name="Path 5106" d="M265.943,122.7a2.985,2.985,0,1,1-2.972-2.7A2.848,2.848,0,0,1,265.943,122.7Z" transform="translate(255.072 96.311)" fill="#ff725e"/>
      <path id="Path_5107" data-name="Path 5107" d="M245.943,142.7a2.985,2.985,0,1,1-2.972-2.7A2.848,2.848,0,0,1,245.943,142.7Z" transform="translate(235.452 112.363)" fill="#ff725e"/>
      <path id="Path_5108" data-name="Path 5108" d="M265.943,142.7a2.985,2.985,0,1,1-2.972-2.7A2.848,2.848,0,0,1,265.943,142.7Z" transform="translate(255.072 112.363)" fill="#ff725e"/>
      <path id="Path_5109" data-name="Path 5109" d="M285.943,122.7a2.985,2.985,0,1,1-2.972-2.7A2.848,2.848,0,0,1,285.943,122.7Z" transform="translate(274.693 96.311)" fill="#ff725e"/>
      <path id="Path_5110" data-name="Path 5110" d="M305.943,122.7a2.985,2.985,0,1,1-2.972-2.7A2.848,2.848,0,0,1,305.943,122.7Z" transform="translate(294.314 96.311)" fill="#ff725e"/>
      <path id="Path_5111" data-name="Path 5111" d="M285.943,142.7a2.985,2.985,0,1,1-2.972-2.7A2.848,2.848,0,0,1,285.943,142.7Z" transform="translate(274.693 112.363)" fill="#ff725e"/>
      <path id="Path_5112" data-name="Path 5112" d="M305.943,142.7a2.985,2.985,0,1,1-2.972-2.7A2.848,2.848,0,0,1,305.943,142.7Z" transform="translate(294.314 112.363)" fill="#ff725e"/>
      <path id="Path_5113" data-name="Path 5113" d="M5.943,162.7a2.848,2.848,0,0,1-2.972,2.7,2.716,2.716,0,1,1,0-5.408A2.848,2.848,0,0,1,5.943,162.7Z" transform="translate(0 128.415)" fill="#ff725e"/>
      <path id="Path_5114" data-name="Path 5114" d="M25.943,162.7a2.848,2.848,0,0,1-2.972,2.7,2.716,2.716,0,1,1,0-5.408A2.848,2.848,0,0,1,25.943,162.7Z" transform="translate(19.621 128.415)" fill="#ff725e"/>
      <path id="Path_5115" data-name="Path 5115" d="M5.943,182.7a2.848,2.848,0,0,1-2.972,2.7,2.716,2.716,0,1,1,0-5.408A2.848,2.848,0,0,1,5.943,182.7Z" transform="translate(0 144.467)" fill="#ff725e"/>
      <path id="Path_5116" data-name="Path 5116" d="M25.943,182.7a2.848,2.848,0,0,1-2.972,2.7,2.716,2.716,0,1,1,0-5.408A2.848,2.848,0,0,1,25.943,182.7Z" transform="translate(19.621 144.467)" fill="#ff725e"/>
      <path id="Path_5117" data-name="Path 5117" d="M45.943,162.7a2.985,2.985,0,1,1-2.972-2.7A2.848,2.848,0,0,1,45.943,162.7Z" transform="translate(39.242 128.415)" fill="#ff725e"/>
      <path id="Path_5118" data-name="Path 5118" d="M65.943,162.7a2.985,2.985,0,1,1-2.972-2.7A2.848,2.848,0,0,1,65.943,162.7Z" transform="translate(58.863 128.415)" fill="#ff725e"/>
      <path id="Path_5119" data-name="Path 5119" d="M45.943,182.7a2.985,2.985,0,1,1-2.972-2.7A2.848,2.848,0,0,1,45.943,182.7Z" transform="translate(39.242 144.467)" fill="#ff725e"/>
      <path id="Path_5120" data-name="Path 5120" d="M65.943,182.7a2.985,2.985,0,1,1-2.972-2.7A2.848,2.848,0,0,1,65.943,182.7Z" transform="translate(58.863 144.467)" fill="#ff725e"/>
      <path id="Path_5121" data-name="Path 5121" d="M85.943,162.7a2.985,2.985,0,1,1-2.972-2.7A2.848,2.848,0,0,1,85.943,162.7Z" transform="translate(78.484 128.415)" fill="#ff725e"/>
      <path id="Path_5122" data-name="Path 5122" d="M105.943,162.7a2.985,2.985,0,1,1-2.972-2.7A2.848,2.848,0,0,1,105.943,162.7Z" transform="translate(98.105 128.415)" fill="#ff725e"/>
      <path id="Path_5123" data-name="Path 5123" d="M85.943,182.7a2.985,2.985,0,1,1-2.972-2.7A2.848,2.848,0,0,1,85.943,182.7Z" transform="translate(78.484 144.467)" fill="#ff725e"/>
      <path id="Path_5124" data-name="Path 5124" d="M105.943,182.7a2.985,2.985,0,1,1-2.972-2.7A2.848,2.848,0,0,1,105.943,182.7Z" transform="translate(98.105 144.467)" fill="#ff725e"/>
      <path id="Path_5125" data-name="Path 5125" d="M125.943,162.7a2.985,2.985,0,1,1-2.972-2.7A2.848,2.848,0,0,1,125.943,162.7Z" transform="translate(117.726 128.415)" fill="#ff725e"/>
      <path id="Path_5126" data-name="Path 5126" d="M145.943,162.7a2.985,2.985,0,1,1-2.972-2.7A2.848,2.848,0,0,1,145.943,162.7Z" transform="translate(137.347 128.415)" fill="#ff725e"/>
      <path id="Path_5127" data-name="Path 5127" d="M125.943,182.7a2.985,2.985,0,1,1-2.972-2.7A2.848,2.848,0,0,1,125.943,182.7Z" transform="translate(117.726 144.467)" fill="#ff725e"/>
      <path id="Path_5128" data-name="Path 5128" d="M145.943,182.7a2.985,2.985,0,1,1-2.972-2.7A2.848,2.848,0,0,1,145.943,182.7Z" transform="translate(137.347 144.467)" fill="#ff725e"/>
      <path id="Path_5129" data-name="Path 5129" d="M165.943,162.7a2.985,2.985,0,1,1-2.972-2.7A2.848,2.848,0,0,1,165.943,162.7Z" transform="translate(156.968 128.415)" fill="#ff725e"/>
      <path id="Path_5130" data-name="Path 5130" d="M185.943,162.7a2.985,2.985,0,1,1-2.972-2.7A2.848,2.848,0,0,1,185.943,162.7Z" transform="translate(176.589 128.415)" fill="#ff725e"/>
      <path id="Path_5131" data-name="Path 5131" d="M165.943,182.7a2.985,2.985,0,1,1-2.972-2.7A2.848,2.848,0,0,1,165.943,182.7Z" transform="translate(156.968 144.467)" fill="#ff725e"/>
      <path id="Path_5132" data-name="Path 5132" d="M185.943,182.7a2.985,2.985,0,1,1-2.972-2.7A2.848,2.848,0,0,1,185.943,182.7Z" transform="translate(176.589 144.467)" fill="#ff725e"/>
      <path id="Path_5133" data-name="Path 5133" d="M205.943,162.7a2.985,2.985,0,1,1-2.972-2.7A2.848,2.848,0,0,1,205.943,162.7Z" transform="translate(196.21 128.415)" fill="#ff725e"/>
      <path id="Path_5134" data-name="Path 5134" d="M225.943,162.7a2.985,2.985,0,1,1-2.972-2.7A2.848,2.848,0,0,1,225.943,162.7Z" transform="translate(215.831 128.415)" fill="#ff725e"/>
      <path id="Path_5135" data-name="Path 5135" d="M205.943,182.7a2.985,2.985,0,1,1-2.972-2.7A2.848,2.848,0,0,1,205.943,182.7Z" transform="translate(196.21 144.467)" fill="#ff725e"/>
      <path id="Path_5136" data-name="Path 5136" d="M225.943,182.7a2.985,2.985,0,1,1-2.972-2.7A2.848,2.848,0,0,1,225.943,182.7Z" transform="translate(215.831 144.467)" fill="#ff725e"/>
      <path id="Path_5137" data-name="Path 5137" d="M245.943,162.7a2.985,2.985,0,1,1-2.972-2.7A2.848,2.848,0,0,1,245.943,162.7Z" transform="translate(235.452 128.415)" fill="#ff725e"/>
      <path id="Path_5138" data-name="Path 5138" d="M265.943,162.7a2.985,2.985,0,1,1-2.972-2.7A2.848,2.848,0,0,1,265.943,162.7Z" transform="translate(255.072 128.415)" fill="#ff725e"/>
      <path id="Path_5139" data-name="Path 5139" d="M245.943,182.7a2.985,2.985,0,1,1-2.972-2.7A2.848,2.848,0,0,1,245.943,182.7Z" transform="translate(235.452 144.467)" fill="#ff725e"/>
      <path id="Path_5140" data-name="Path 5140" d="M265.943,182.7a2.985,2.985,0,1,1-2.972-2.7A2.848,2.848,0,0,1,265.943,182.7Z" transform="translate(255.072 144.467)" fill="#ff725e"/>
      <path id="Path_5141" data-name="Path 5141" d="M285.943,162.7a2.985,2.985,0,1,1-2.972-2.7A2.848,2.848,0,0,1,285.943,162.7Z" transform="translate(274.693 128.415)" fill="#ff725e"/>
      <path id="Path_5142" data-name="Path 5142" d="M305.943,162.7a2.985,2.985,0,1,1-2.972-2.7A2.848,2.848,0,0,1,305.943,162.7Z" transform="translate(294.314 128.415)" fill="#ff725e"/>
      <path id="Path_5143" data-name="Path 5143" d="M285.943,182.7a2.985,2.985,0,1,1-2.972-2.7A2.848,2.848,0,0,1,285.943,182.7Z" transform="translate(274.693 144.467)" fill="#ff725e"/>
      <path id="Path_5144" data-name="Path 5144" d="M305.943,182.7a2.985,2.985,0,1,1-2.972-2.7A2.848,2.848,0,0,1,305.943,182.7Z" transform="translate(294.314 144.467)" fill="#ff725e"/>
      <path id="Path_5145" data-name="Path 5145" d="M5.943,202.7a2.848,2.848,0,0,1-2.972,2.7,2.716,2.716,0,1,1,0-5.408A2.848,2.848,0,0,1,5.943,202.7Z" transform="translate(0 160.519)" fill="#ff725e"/>
      <path id="Path_5146" data-name="Path 5146" d="M25.943,202.7a2.848,2.848,0,0,1-2.972,2.7,2.716,2.716,0,1,1,0-5.408A2.848,2.848,0,0,1,25.943,202.7Z" transform="translate(19.621 160.519)" fill="#ff725e"/>
      <path id="Path_5147" data-name="Path 5147" d="M5.943,222.7a2.848,2.848,0,0,1-2.972,2.7,2.716,2.716,0,1,1,0-5.408A2.848,2.848,0,0,1,5.943,222.7Z" transform="translate(0 176.571)" fill="#ff725e"/>
      <path id="Path_5148" data-name="Path 5148" d="M25.943,222.7a2.848,2.848,0,0,1-2.972,2.7,2.716,2.716,0,1,1,0-5.408A2.848,2.848,0,0,1,25.943,222.7Z" transform="translate(19.621 176.571)" fill="#ff725e"/>
      <path id="Path_5149" data-name="Path 5149" d="M45.943,202.7a2.985,2.985,0,1,1-2.972-2.7A2.848,2.848,0,0,1,45.943,202.7Z" transform="translate(39.242 160.519)" fill="#ff725e"/>
      <path id="Path_5150" data-name="Path 5150" d="M65.943,202.7a2.985,2.985,0,1,1-2.972-2.7A2.848,2.848,0,0,1,65.943,202.7Z" transform="translate(58.863 160.519)" fill="#ff725e"/>
      <path id="Path_5151" data-name="Path 5151" d="M45.943,222.7a2.985,2.985,0,1,1-2.972-2.7A2.848,2.848,0,0,1,45.943,222.7Z" transform="translate(39.242 176.571)" fill="#ff725e"/>
      <path id="Path_5152" data-name="Path 5152" d="M65.943,222.7a2.985,2.985,0,1,1-2.972-2.7A2.848,2.848,0,0,1,65.943,222.7Z" transform="translate(58.863 176.571)" fill="#ff725e"/>
      <path id="Path_5153" data-name="Path 5153" d="M85.943,202.7a2.985,2.985,0,1,1-2.972-2.7A2.848,2.848,0,0,1,85.943,202.7Z" transform="translate(78.484 160.519)" fill="#ff725e"/>
      <path id="Path_5154" data-name="Path 5154" d="M105.943,202.7a2.985,2.985,0,1,1-2.972-2.7A2.848,2.848,0,0,1,105.943,202.7Z" transform="translate(98.105 160.519)" fill="#ff725e"/>
      <path id="Path_5155" data-name="Path 5155" d="M85.943,222.7a2.985,2.985,0,1,1-2.972-2.7A2.848,2.848,0,0,1,85.943,222.7Z" transform="translate(78.484 176.571)" fill="#ff725e"/>
      <path id="Path_5156" data-name="Path 5156" d="M105.943,222.7a2.985,2.985,0,1,1-2.972-2.7A2.848,2.848,0,0,1,105.943,222.7Z" transform="translate(98.105 176.571)" fill="#ff725e"/>
      <path id="Path_5157" data-name="Path 5157" d="M125.943,202.7a2.985,2.985,0,1,1-2.972-2.7A2.848,2.848,0,0,1,125.943,202.7Z" transform="translate(117.726 160.519)" fill="#ff725e"/>
      <path id="Path_5158" data-name="Path 5158" d="M145.943,202.7a2.985,2.985,0,1,1-2.972-2.7A2.848,2.848,0,0,1,145.943,202.7Z" transform="translate(137.347 160.519)" fill="#ff725e"/>
      <path id="Path_5159" data-name="Path 5159" d="M125.943,222.7a2.985,2.985,0,1,1-2.972-2.7A2.848,2.848,0,0,1,125.943,222.7Z" transform="translate(117.726 176.571)" fill="#ff725e"/>
      <path id="Path_5160" data-name="Path 5160" d="M145.943,222.7a2.985,2.985,0,1,1-2.972-2.7A2.848,2.848,0,0,1,145.943,222.7Z" transform="translate(137.347 176.571)" fill="#ff725e"/>
      <path id="Path_5161" data-name="Path 5161" d="M165.943,202.7a2.985,2.985,0,1,1-2.972-2.7A2.848,2.848,0,0,1,165.943,202.7Z" transform="translate(156.968 160.519)" fill="#ff725e"/>
      <path id="Path_5162" data-name="Path 5162" d="M185.943,202.7a2.985,2.985,0,1,1-2.972-2.7A2.848,2.848,0,0,1,185.943,202.7Z" transform="translate(176.589 160.519)" fill="#ff725e"/>
      <path id="Path_5163" data-name="Path 5163" d="M165.943,222.7a2.985,2.985,0,1,1-2.972-2.7A2.848,2.848,0,0,1,165.943,222.7Z" transform="translate(156.968 176.571)" fill="#ff725e"/>
      <path id="Path_5164" data-name="Path 5164" d="M185.943,222.7a2.985,2.985,0,1,1-2.972-2.7A2.848,2.848,0,0,1,185.943,222.7Z" transform="translate(176.589 176.571)" fill="#ff725e"/>
      <path id="Path_5165" data-name="Path 5165" d="M205.943,202.7a2.985,2.985,0,1,1-2.972-2.7A2.848,2.848,0,0,1,205.943,202.7Z" transform="translate(196.21 160.519)" fill="#ff725e"/>
      <path id="Path_5166" data-name="Path 5166" d="M225.943,202.7a2.985,2.985,0,1,1-2.972-2.7A2.848,2.848,0,0,1,225.943,202.7Z" transform="translate(215.831 160.519)" fill="#ff725e"/>
      <path id="Path_5167" data-name="Path 5167" d="M205.943,222.7a2.985,2.985,0,1,1-2.972-2.7A2.848,2.848,0,0,1,205.943,222.7Z" transform="translate(196.21 176.571)" fill="#ff725e"/>
      <path id="Path_5168" data-name="Path 5168" d="M225.943,222.7a2.985,2.985,0,1,1-2.972-2.7A2.848,2.848,0,0,1,225.943,222.7Z" transform="translate(215.831 176.571)" fill="#ff725e"/>
      <path id="Path_5169" data-name="Path 5169" d="M245.943,202.7a2.985,2.985,0,1,1-2.972-2.7A2.848,2.848,0,0,1,245.943,202.7Z" transform="translate(235.452 160.519)" fill="#ff725e"/>
      <path id="Path_5170" data-name="Path 5170" d="M265.943,202.7a2.985,2.985,0,1,1-2.972-2.7A2.848,2.848,0,0,1,265.943,202.7Z" transform="translate(255.072 160.519)" fill="#ff725e"/>
      <path id="Path_5171" data-name="Path 5171" d="M245.943,222.7a2.985,2.985,0,1,1-2.972-2.7A2.848,2.848,0,0,1,245.943,222.7Z" transform="translate(235.452 176.571)" fill="#ff725e"/>
      <path id="Path_5172" data-name="Path 5172" d="M265.943,222.7a2.985,2.985,0,1,1-2.972-2.7A2.848,2.848,0,0,1,265.943,222.7Z" transform="translate(255.072 176.571)" fill="#ff725e"/>
      <path id="Path_5173" data-name="Path 5173" d="M285.943,202.7a2.985,2.985,0,1,1-2.972-2.7A2.848,2.848,0,0,1,285.943,202.7Z" transform="translate(274.693 160.519)" fill="#ff725e"/>
      <path id="Path_5174" data-name="Path 5174" d="M305.943,202.7a2.985,2.985,0,1,1-2.972-2.7A2.848,2.848,0,0,1,305.943,202.7Z" transform="translate(294.314 160.519)" fill="#ff725e"/>
      <path id="Path_5175" data-name="Path 5175" d="M285.943,222.7a2.985,2.985,0,1,1-2.972-2.7A2.848,2.848,0,0,1,285.943,222.7Z" transform="translate(274.693 176.571)" fill="#ff725e"/>
      <path id="Path_5176" data-name="Path 5176" d="M305.943,222.7a2.985,2.985,0,1,1-2.972-2.7A2.848,2.848,0,0,1,305.943,222.7Z" transform="translate(294.314 176.571)" fill="#ff725e"/>
      <path id="Path_5177" data-name="Path 5177" d="M5.943,242.7a2.848,2.848,0,0,1-2.972,2.7,2.716,2.716,0,1,1,0-5.408A2.848,2.848,0,0,1,5.943,242.7Z" transform="translate(0 192.623)" fill="#ff725e"/>
      <path id="Path_5178" data-name="Path 5178" d="M25.943,242.7a2.848,2.848,0,0,1-2.972,2.7,2.716,2.716,0,1,1,0-5.408A2.848,2.848,0,0,1,25.943,242.7Z" transform="translate(19.621 192.623)" fill="#ff725e"/>
      <path id="Path_5179" data-name="Path 5179" d="M5.943,262.7a2.848,2.848,0,0,1-2.972,2.7,2.716,2.716,0,1,1,0-5.408A2.848,2.848,0,0,1,5.943,262.7Z" transform="translate(0 208.675)" fill="#ff725e"/>
      <path id="Path_5180" data-name="Path 5180" d="M25.943,262.7a2.848,2.848,0,0,1-2.972,2.7,2.716,2.716,0,1,1,0-5.408A2.848,2.848,0,0,1,25.943,262.7Z" transform="translate(19.621 208.675)" fill="#ff725e"/>
      <path id="Path_5181" data-name="Path 5181" d="M45.943,242.7a2.985,2.985,0,1,1-2.972-2.7A2.848,2.848,0,0,1,45.943,242.7Z" transform="translate(39.242 192.623)" fill="#ff725e"/>
      <path id="Path_5182" data-name="Path 5182" d="M65.943,242.7a2.985,2.985,0,1,1-2.972-2.7A2.848,2.848,0,0,1,65.943,242.7Z" transform="translate(58.863 192.623)" fill="#ff725e"/>
      <path id="Path_5183" data-name="Path 5183" d="M45.943,262.7a2.985,2.985,0,1,1-2.972-2.7A2.848,2.848,0,0,1,45.943,262.7Z" transform="translate(39.242 208.675)" fill="#ff725e"/>
      <path id="Path_5184" data-name="Path 5184" d="M65.943,262.7a2.985,2.985,0,1,1-2.972-2.7A2.848,2.848,0,0,1,65.943,262.7Z" transform="translate(58.863 208.675)" fill="#ff725e"/>
      <path id="Path_5185" data-name="Path 5185" d="M85.943,242.7a2.985,2.985,0,1,1-2.972-2.7A2.848,2.848,0,0,1,85.943,242.7Z" transform="translate(78.484 192.623)" fill="#ff725e"/>
      <path id="Path_5186" data-name="Path 5186" d="M105.943,242.7a2.985,2.985,0,1,1-2.972-2.7A2.848,2.848,0,0,1,105.943,242.7Z" transform="translate(98.105 192.623)" fill="#ff725e"/>
      <path id="Path_5187" data-name="Path 5187" d="M85.943,262.7a2.985,2.985,0,1,1-2.972-2.7A2.848,2.848,0,0,1,85.943,262.7Z" transform="translate(78.484 208.675)" fill="#ff725e"/>
      <path id="Path_5188" data-name="Path 5188" d="M105.943,262.7a2.985,2.985,0,1,1-2.972-2.7A2.848,2.848,0,0,1,105.943,262.7Z" transform="translate(98.105 208.675)" fill="#ff725e"/>
      <path id="Path_5189" data-name="Path 5189" d="M125.943,242.7a2.985,2.985,0,1,1-2.972-2.7A2.848,2.848,0,0,1,125.943,242.7Z" transform="translate(117.726 192.623)" fill="#ff725e"/>
      <path id="Path_5190" data-name="Path 5190" d="M145.943,242.7a2.985,2.985,0,1,1-2.972-2.7A2.848,2.848,0,0,1,145.943,242.7Z" transform="translate(137.347 192.623)" fill="#ff725e"/>
      <path id="Path_5191" data-name="Path 5191" d="M125.943,262.7a2.985,2.985,0,1,1-2.972-2.7A2.848,2.848,0,0,1,125.943,262.7Z" transform="translate(117.726 208.675)" fill="#ff725e"/>
      <path id="Path_5192" data-name="Path 5192" d="M145.943,262.7a2.985,2.985,0,1,1-2.972-2.7A2.848,2.848,0,0,1,145.943,262.7Z" transform="translate(137.347 208.675)" fill="#ff725e"/>
      <path id="Path_5193" data-name="Path 5193" d="M165.943,242.7a2.985,2.985,0,1,1-2.972-2.7A2.848,2.848,0,0,1,165.943,242.7Z" transform="translate(156.968 192.623)" fill="#ff725e"/>
      <path id="Path_5194" data-name="Path 5194" d="M185.943,242.7a2.985,2.985,0,1,1-2.972-2.7A2.848,2.848,0,0,1,185.943,242.7Z" transform="translate(176.589 192.623)" fill="#ff725e"/>
      <path id="Path_5195" data-name="Path 5195" d="M165.943,262.7a2.985,2.985,0,1,1-2.972-2.7A2.848,2.848,0,0,1,165.943,262.7Z" transform="translate(156.968 208.675)" fill="#ff725e"/>
      <path id="Path_5196" data-name="Path 5196" d="M185.943,262.7a2.985,2.985,0,1,1-2.972-2.7A2.848,2.848,0,0,1,185.943,262.7Z" transform="translate(176.589 208.675)" fill="#ff725e"/>
      <path id="Path_5197" data-name="Path 5197" d="M205.943,242.7a2.985,2.985,0,1,1-2.972-2.7A2.848,2.848,0,0,1,205.943,242.7Z" transform="translate(196.21 192.623)" fill="#ff725e"/>
      <path id="Path_5198" data-name="Path 5198" d="M225.943,242.7a2.985,2.985,0,1,1-2.972-2.7A2.848,2.848,0,0,1,225.943,242.7Z" transform="translate(215.831 192.623)" fill="#ff725e"/>
      <path id="Path_5199" data-name="Path 5199" d="M205.943,262.7a2.985,2.985,0,1,1-2.972-2.7A2.848,2.848,0,0,1,205.943,262.7Z" transform="translate(196.21 208.675)" fill="#ff725e"/>
      <path id="Path_5200" data-name="Path 5200" d="M225.943,262.7a2.985,2.985,0,1,1-2.972-2.7A2.848,2.848,0,0,1,225.943,262.7Z" transform="translate(215.831 208.675)" fill="#ff725e"/>
      <path id="Path_5201" data-name="Path 5201" d="M245.943,242.7a2.985,2.985,0,1,1-2.972-2.7A2.848,2.848,0,0,1,245.943,242.7Z" transform="translate(235.452 192.623)" fill="#ff725e"/>
      <path id="Path_5202" data-name="Path 5202" d="M265.943,242.7a2.985,2.985,0,1,1-2.972-2.7A2.848,2.848,0,0,1,265.943,242.7Z" transform="translate(255.072 192.623)" fill="#ff725e"/>
      <path id="Path_5203" data-name="Path 5203" d="M245.943,262.7a2.985,2.985,0,1,1-2.972-2.7A2.848,2.848,0,0,1,245.943,262.7Z" transform="translate(235.452 208.675)" fill="#ff725e"/>
      <path id="Path_5204" data-name="Path 5204" d="M265.943,262.7a2.985,2.985,0,1,1-2.972-2.7A2.848,2.848,0,0,1,265.943,262.7Z" transform="translate(255.072 208.675)" fill="#ff725e"/>
      <path id="Path_5205" data-name="Path 5205" d="M285.943,242.7a2.985,2.985,0,1,1-2.972-2.7A2.848,2.848,0,0,1,285.943,242.7Z" transform="translate(274.693 192.623)" fill="#ff725e"/>
      <path id="Path_5206" data-name="Path 5206" d="M305.943,242.7a2.985,2.985,0,1,1-2.972-2.7A2.848,2.848,0,0,1,305.943,242.7Z" transform="translate(294.314 192.623)" fill="#ff725e"/>
      <path id="Path_5207" data-name="Path 5207" d="M285.943,262.7a2.985,2.985,0,1,1-2.972-2.7A2.848,2.848,0,0,1,285.943,262.7Z" transform="translate(274.693 208.675)" fill="#ff725e"/>
      <path id="Path_5208" data-name="Path 5208" d="M305.943,262.7a2.985,2.985,0,1,1-2.972-2.7A2.848,2.848,0,0,1,305.943,262.7Z" transform="translate(294.314 208.675)" fill="#ff725e"/>
      <path id="Path_5209" data-name="Path 5209" d="M5.943,282.7a2.848,2.848,0,0,1-2.972,2.7,2.716,2.716,0,1,1,0-5.408A2.848,2.848,0,0,1,5.943,282.7Z" transform="translate(0 224.727)" fill="#ff725e"/>
      <path id="Path_5210" data-name="Path 5210" d="M25.943,282.7a2.848,2.848,0,0,1-2.972,2.7,2.716,2.716,0,1,1,0-5.408A2.848,2.848,0,0,1,25.943,282.7Z" transform="translate(19.621 224.727)" fill="#ff725e"/>
      <path id="Path_5211" data-name="Path 5211" d="M5.943,302.7a2.848,2.848,0,0,1-2.972,2.7,2.716,2.716,0,1,1,0-5.408A2.848,2.848,0,0,1,5.943,302.7Z" transform="translate(0 240.779)" fill="#ff725e"/>
      <path id="Path_5212" data-name="Path 5212" d="M25.943,302.7a2.848,2.848,0,0,1-2.972,2.7,2.716,2.716,0,1,1,0-5.408A2.848,2.848,0,0,1,25.943,302.7Z" transform="translate(19.621 240.779)" fill="#ff725e"/>
      <path id="Path_5213" data-name="Path 5213" d="M45.943,282.7a2.985,2.985,0,1,1-2.972-2.7A2.848,2.848,0,0,1,45.943,282.7Z" transform="translate(39.242 224.727)" fill="#ff725e"/>
      <path id="Path_5214" data-name="Path 5214" d="M65.943,282.7a2.985,2.985,0,1,1-2.972-2.7A2.848,2.848,0,0,1,65.943,282.7Z" transform="translate(58.863 224.727)" fill="#ff725e"/>
      <path id="Path_5215" data-name="Path 5215" d="M45.943,302.7a2.985,2.985,0,1,1-2.972-2.7A2.848,2.848,0,0,1,45.943,302.7Z" transform="translate(39.242 240.779)" fill="#ff725e"/>
      <path id="Path_5216" data-name="Path 5216" d="M65.943,302.7a2.985,2.985,0,1,1-2.972-2.7A2.848,2.848,0,0,1,65.943,302.7Z" transform="translate(58.863 240.779)" fill="#ff725e"/>
      <path id="Path_5217" data-name="Path 5217" d="M85.943,282.7a2.985,2.985,0,1,1-2.972-2.7A2.848,2.848,0,0,1,85.943,282.7Z" transform="translate(78.484 224.727)" fill="#ff725e"/>
      <path id="Path_5218" data-name="Path 5218" d="M105.943,282.7a2.985,2.985,0,1,1-2.972-2.7A2.848,2.848,0,0,1,105.943,282.7Z" transform="translate(98.105 224.727)" fill="#ff725e"/>
      <path id="Path_5219" data-name="Path 5219" d="M85.943,302.7a2.985,2.985,0,1,1-2.972-2.7A2.848,2.848,0,0,1,85.943,302.7Z" transform="translate(78.484 240.779)" fill="#ff725e"/>
      <path id="Path_5220" data-name="Path 5220" d="M105.943,302.7a2.985,2.985,0,1,1-2.972-2.7A2.848,2.848,0,0,1,105.943,302.7Z" transform="translate(98.105 240.779)" fill="#ff725e"/>
      <path id="Path_5221" data-name="Path 5221" d="M125.943,282.7a2.985,2.985,0,1,1-2.972-2.7A2.848,2.848,0,0,1,125.943,282.7Z" transform="translate(117.726 224.727)" fill="#ff725e"/>
      <path id="Path_5222" data-name="Path 5222" d="M145.943,282.7a2.985,2.985,0,1,1-2.972-2.7A2.848,2.848,0,0,1,145.943,282.7Z" transform="translate(137.347 224.727)" fill="#ff725e"/>
      <path id="Path_5223" data-name="Path 5223" d="M125.943,302.7a2.985,2.985,0,1,1-2.972-2.7A2.848,2.848,0,0,1,125.943,302.7Z" transform="translate(117.726 240.779)" fill="#ff725e"/>
      <path id="Path_5224" data-name="Path 5224" d="M145.943,302.7a2.985,2.985,0,1,1-2.972-2.7A2.848,2.848,0,0,1,145.943,302.7Z" transform="translate(137.347 240.779)" fill="#ff725e"/>
      <path id="Path_5225" data-name="Path 5225" d="M165.943,282.7a2.985,2.985,0,1,1-2.972-2.7A2.848,2.848,0,0,1,165.943,282.7Z" transform="translate(156.968 224.727)" fill="#ff725e"/>
      <path id="Path_5226" data-name="Path 5226" d="M185.943,282.7a2.985,2.985,0,1,1-2.972-2.7A2.848,2.848,0,0,1,185.943,282.7Z" transform="translate(176.589 224.727)" fill="#ff725e"/>
      <path id="Path_5227" data-name="Path 5227" d="M165.943,302.7a2.985,2.985,0,1,1-2.972-2.7A2.848,2.848,0,0,1,165.943,302.7Z" transform="translate(156.968 240.779)" fill="#ff725e"/>
      <path id="Path_5228" data-name="Path 5228" d="M185.943,302.7a2.985,2.985,0,1,1-2.972-2.7A2.848,2.848,0,0,1,185.943,302.7Z" transform="translate(176.589 240.779)" fill="#ff725e"/>
      <path id="Path_5229" data-name="Path 5229" d="M205.943,282.7a2.985,2.985,0,1,1-2.972-2.7A2.848,2.848,0,0,1,205.943,282.7Z" transform="translate(196.21 224.727)" fill="#ff725e"/>
      <path id="Path_5230" data-name="Path 5230" d="M225.943,282.7a2.985,2.985,0,1,1-2.972-2.7A2.848,2.848,0,0,1,225.943,282.7Z" transform="translate(215.831 224.727)" fill="#ff725e"/>
      <path id="Path_5231" data-name="Path 5231" d="M205.943,302.7a2.985,2.985,0,1,1-2.972-2.7A2.848,2.848,0,0,1,205.943,302.7Z" transform="translate(196.21 240.779)" fill="#ff725e"/>
      <path id="Path_5232" data-name="Path 5232" d="M225.943,302.7a2.985,2.985,0,1,1-2.972-2.7A2.848,2.848,0,0,1,225.943,302.7Z" transform="translate(215.831 240.779)" fill="#ff725e"/>
      <path id="Path_5233" data-name="Path 5233" d="M245.943,282.7a2.985,2.985,0,1,1-2.972-2.7A2.848,2.848,0,0,1,245.943,282.7Z" transform="translate(235.452 224.727)" fill="#ff725e"/>
      <path id="Path_5234" data-name="Path 5234" d="M265.943,282.7a2.985,2.985,0,1,1-2.972-2.7A2.848,2.848,0,0,1,265.943,282.7Z" transform="translate(255.072 224.727)" fill="#ff725e"/>
      <path id="Path_5235" data-name="Path 5235" d="M245.943,302.7a2.985,2.985,0,1,1-2.972-2.7A2.848,2.848,0,0,1,245.943,302.7Z" transform="translate(235.452 240.779)" fill="#ff725e"/>
      <path id="Path_5236" data-name="Path 5236" d="M265.943,302.7a2.985,2.985,0,1,1-2.972-2.7A2.848,2.848,0,0,1,265.943,302.7Z" transform="translate(255.072 240.779)" fill="#ff725e"/>
      <path id="Path_5237" data-name="Path 5237" d="M285.943,282.7a2.985,2.985,0,1,1-2.972-2.7A2.848,2.848,0,0,1,285.943,282.7Z" transform="translate(274.693 224.727)" fill="#ff725e"/>
      <path id="Path_5238" data-name="Path 5238" d="M305.943,282.7a2.985,2.985,0,1,1-2.972-2.7A2.848,2.848,0,0,1,305.943,282.7Z" transform="translate(294.314 224.727)" fill="#ff725e"/>
      <path id="Path_5239" data-name="Path 5239" d="M285.943,302.7a2.985,2.985,0,1,1-2.972-2.7A2.848,2.848,0,0,1,285.943,302.7Z" transform="translate(274.693 240.779)" fill="#ff725e"/>
      <path id="Path_5240" data-name="Path 5240" d="M305.943,302.7a2.985,2.985,0,1,1-2.972-2.7A2.848,2.848,0,0,1,305.943,302.7Z" transform="translate(294.314 240.779)" fill="#ff725e"/>
    </g>
  </g>
</svg>
