<svg xmlns="http://www.w3.org/2000/svg" width="257.356" height="222.881" viewBox="0 0 257.356 222.881">
  <g id="logo" transform="translate(-461.932 -408.961)">
    <g id="Group_12049" data-name="Group 12049">
      <g id="Group_12048" data-name="Group 12048">
        <rect id="Rectangle_552" data-name="Rectangle 552" width="15.941" height="19.913" transform="translate(582.641 408.961)" fill="#414042"/>
        <path id="Path_6768" data-name="Path 6768" d="M678.756,490.016l15.937,27.605V477.8l-15.937-27.605Z" fill="#414042"/>
        <rect id="Rectangle_553" data-name="Rectangle 553" width="15.941" height="19.913" transform="translate(558.61 408.961)" fill="#414042"/>
        <path id="Path_6769" data-name="Path 6769" d="M550.522,631.842V611.931H534.584v19.911Z" fill="#414042"/>
        <path id="Path_6770" data-name="Path 6770" d="M534.584,428.874h15.938V408.961H534.584Z" fill="#414042"/>
        <rect id="Rectangle_554" data-name="Rectangle 554" width="15.938" height="19.913" transform="translate(606.669 408.961)" fill="#414042"/>
        <path id="Path_6771" data-name="Path 6771" d="M694.693,563V523.178l-15.937,27.6v39.828Z" fill="#414042"/>
        <path id="Path_6772" data-name="Path 6772" d="M702.784,491.808V548.99l16.5-28.591Z" fill="#414042"/>
        <path id="Path_6773" data-name="Path 6773" d="M654.726,448.4l15.94,27.609V436.182L654.95,408.961h-.224Z" fill="#414042"/>
        <rect id="Rectangle_555" data-name="Rectangle 555" width="15.941" height="19.911" transform="translate(558.61 611.931)" fill="#414042"/>
        <path id="Path_6774" data-name="Path 6774" d="M486.525,477.8v39.825l15.94-27.614V450.19Z" fill="#414042"/>
        <path id="Path_6775" data-name="Path 6775" d="M502.465,550.785l-15.94-27.613V563l15.94,27.61Z" fill="#414042"/>
        <path id="Path_6776" data-name="Path 6776" d="M526.5,592.407l-15.941-27.612v39.828l15.715,27.219h.226Z" fill="#414042"/>
        <path id="Path_6777" data-name="Path 6777" d="M478.435,491.812l-16.5,28.587,16.5,28.587Z" fill="#414042"/>
        <path id="Path_6778" data-name="Path 6778" d="M670.666,564.793,654.726,592.4v39.439h.224l15.716-27.223Z" fill="#414042"/>
        <path id="Path_6779" data-name="Path 6779" d="M630.7,408.961v19.913h15.94V408.961Z" fill="#414042"/>
        <rect id="Rectangle_556" data-name="Rectangle 556" width="15.938" height="19.911" transform="translate(606.669 611.931)" fill="#414042"/>
        <path id="Path_6780" data-name="Path 6780" d="M510.554,476,526.5,448.395V408.961h-.226L510.554,436.18Z" fill="#414042"/>
        <path id="Path_6781" data-name="Path 6781" d="M646.637,611.931H630.7v19.911h15.94Z" fill="#414042"/>
        <rect id="Rectangle_557" data-name="Rectangle 557" width="15.941" height="19.911" transform="translate(582.641 611.931)" fill="#414042"/>
      </g>
      <path id="Path_6782" data-name="Path 6782" d="M639.014,436.566h-96.8l-48.4,83.833,48.4,83.835h45.615l51.19,0,43.422-75.209,4.979-8.622ZM604.408,570.575l-30.934-44.583v44.583H554.167V470.232h19.307v34.594l14.933-18.966,12.3-15.628h22.935L588.6,515.016l38.449,55.559Z" fill="#ff725e"/>
      <path id="Path_6783" data-name="Path 6783" d="M623.646,470.232,588.6,515.016l38.449,55.56H604.408l-30.934-44.583v44.583H554.167l33.657,33.657,51.19,0,43.422-75.209Z" fill="#929497" style="mix-blend-mode: multiply;isolation: isolate"/>
    </g>
  </g>
</svg>
